<svg enable-background="new 0 0 1400.9 947.1" viewBox="0 0 1400.9 947.1" xmlns="http://www.w3.org/2000/svg" xmlns:xlink="http://www.w3.org/1999/xlink"><clipPath id="a"><ellipse cx="340.6" cy="254" rx="134.7" ry="144.7"/></clipPath><clipPath id="b"><ellipse cx="929.2" cy="556" rx="134.7" ry="144.5"/></clipPath><clipPath id="c"><path d="m430.9 570.9c0 74.4-60.3 134.7-134.7 134.7s-197.2-85.3-197.2-159.7 122.8-109.7 197.2-109.7 134.7 60.3 134.7 134.7z"/></clipPath><clipPath id="d"><circle cx="862.3" cy="186.4" r="134.7"/></clipPath><clipPath id="e"><circle cx="1216.1" cy="293.3" r="134.7"/></clipPath><path d="m802.4 102.7c-219.5-31.5-423.7 121.5-455.2 340.9-31.5 219.5 121.4 423.6 340.9 455.2 219.5 31.5 423.6-121.3 455.2-340.8 31.5-219.5-121.4-423.7-340.9-455.3z" fill="#c5e1f9"/><path d="m819.8 105.7c124.5 83.4 197.4 233.5 174.8 391.5-31.6 219.5-235.7 372.4-455.2 340.8-5.9-.8-11.7-1.8-17.5-3 48.4 32.5 104.6 54.8 166.1 63.7 219.5 31.5 423.6-121.3 455.2-340.8 30.7-213.5-113.4-412.7-323.4-452.2z" fill="#b5d5ea"/><g fill="#e1ebf4"><path d="m1110.5 663.6c-5.3-.6-12.5.9-12.8 2.6-.3 1.8-8.1 4-10.6 4.7-2.5.6-8.3 7.3-9.6 9.6s-7.1.8-9.5 1.4c-2.3.6-7.4 3.6-7.7 5.8s-1.6 1.8-2.6-.9c0 0 0 0-3.3 2.6-3.9 3.3-3.9 3.3-3.9 3.3-2.8 5.9-10.4 12.6-12.8 13-2.2.2-4.3 11-4.9 15.3-.6 4.4.4 9.9 2 12.4v3.5c-.2 6.9-.2 6.9-.2 6.9-1.9 5.2 1.4 10.5 2.4 11.5s11.2-.1 15.2-.5c1.6-.1 3.7-.7 5.6-1.4 21.9-26.9 40.3-56.8 54.7-89.1-.7-.4-1.4-.6-2-.7z"/><path d="m451.8 579.4c-.8 1 5.3 9.4 7.8 12.2 2.4 2.9 6.5 15.7 7.2 19.7.6 4.1-1 10.4-1.6 12-.6 1.4.7 5 .8 6.4 0 1.4-4.4 12.7-4 17.5.3 4.9-8.3 18.6-9.2 26-.8 7.3 1.1 17.3 2.5 16.8 1.5-.6.8 6.9-1.5 7.4-2.3.6-5.8 6-4.5 6.5 1.2.5-1 6-1 8.4s-.2 17.8-.3 21.6c-.1 3.9 3.9 13.8 4.6 17.1s1 9.4 1.3 10.3c.2 1 .7 2 .7 2 .1 0 4.2 2.3 5.3 3.4 1.2 1.2 9.8 1.7 12.7 1.6 2.8-.2.6-3.1-.4-4.7s-1.2-8.4-2.5-9.3c-1.4-.8-.7-9.5.8-11.2 1.6-1.7 7.1-4 7.9-5.5.7-1.5 2.1-9 .8-10.2-1.2-1.2 1.9-10 1.5-14.6-.4-4.7 9-7.5 10-11 1.1-3.5 11.1-6 13.6-7.4 2.4-1.5 5.7-11.4 5-13.8-.7-2.3 4.1-3.5 6.1-3.2s4.5-.8 5.3-.7c.8 0 3.9-4.1 5.3-5 1.5-.8 5.7-11.2 8.3-12.7 2.7-1.4 5.6-7.6 5.8-9.5.3-1.9 4.8-7.1 6.2-8.6 1.4-1.6 10.9-4.4 12.6-4.8s6.1-14.4 7.6-19.5c1.3-5.1 5-11.6 5.4-13.2s3.5-2.7 4.1-3.2c.7-.5 3.7-6.7 5.3-8s7.5-6.9 7.8-8.3c.3-1.3 1.6-4.8 2.8-7.7 0 0 0 0 .5-3.5.9-5.5.9-5.5.9-5.5-1-4.6-5-10.7-6.3-9.7-1.4 1-6.3-4.8-8.9-6.3-2.7-1.4-9.5-3.3-11.3-3.5-1.8-.3-7.2-6.2-9.8-7.5-2.6-1.2-9.5-3.6-10.6-4.6s-1.4-11.7-6.6-16c-5.2-4.2-14-13.6-14.7-16.7s-10.7-10.8-13.8-13.1-8.1-3.5-8.8-2.9c-.8.5-4.1-6.4-6-8.5s-8.2-4.6-8.8-3c-.5 1.6-4.7.1-5.5-1.4-.7-1.5-4.4-.1-6.1.3-1.6.2-8.2 7.7-11 9.4-2.8 1.6-5.2-2.6-6.8-3.6-1.5-.9-8 .1-9.9 1-1.9 1-4.4-9.6-2.8-14s-2.2-14.3-6-15.1c-3.9-.8-3.7-10.5-2.4-13.9s-6.1-6.7-8.1-7.2c-1.9-.6-7.5 3.6-8.7 5.9s-18-5.9-14.4-16.1c3.6-10.3 13.5-19.9 15.8-21 2.3-.9 13.7 0 16 1.8 2.2 1.8 4.7.7 5.3.1.5-.6 9.6 1.5 12.2 3s5 12.8 7.7 14.5 4.9-6.4 5.6-8.3c.7-2-.4-7.3-.8-8.8-.5-1.6 6.6-13.7 11.3-15.3 4.6-1.6 10.3-8.1 10.1-9.5-.3-1.3 3.7-1.8 4.9-2.2s1.4-11 3.5-13c2-2 10.8-5.6 13.6-6.3 2.7-.7 5.5-7 4.8-8.3-.8-1.3 7.7-6.6 11.7-7.3 4.1-.7 7 3.3 6 3.7.8-.3 6.7-2.4 9.2-3.5 2.9-1.3.9-6.6-.6-8.3s.4-7.2 2.5-7.5c2.2-.2 4.7-4.9 4.3-6-.4-1.2 8.5 2 12.4 0 3.8-2.1.1 6.4-3 9.6-3.1 3.1.9 7.2 2.6 6.8 1.7-.5 3.1 2.4 3.3 3.4s4-.5 6.2.8c2.2 1.4 4.1-2.6 4.6-4.6.5-1.9-4.7-6.7-5.3-9.2s1-16 1.2-18.7c.3-2.8-2.7-7.8-4.1-7.2-1.2.5-2.5-7.7-4.2-9.7s-1.6-5.9-1.3-7.1c.3-1.3-5.4-9.2-6.5-12.6s-3.4-3.1-3.8-1.7c-.4 1.5-5 1.1-6.9.6-1.8-.5-2.3-8-2-10.7.4-2.8-8.1-4.5-9.1-6.9s-6.8-2.2-7.5-3.8c-.7-1.7-5.4-3.8-6.4-3.4-1.1.4-3.4 20.2-5.1 25.5-1.7 5.2-6.9 9.2-8.6 8.9-1.6-.3-1.2 3.7 0 3.5s-4 5.4-5.2 9.4c-1.1 3.9-4.6-.9-4.8-4.6-.1-3.8-3.5-9.3-4.4-8.2s-3.3-2-4.7-1.4c-1.3.6-8.2-5.7-11-7.9-2.8-2-3.2-11.7-4.8-12.8-1.7-1.1 0-2 .2-3.4.2-1.5 6.9-6 9.1-8 2-1.9 9.9-9.5 12.8-11s5.6-6.1 5.3-7.1c-.3-.9 11.8-2.9 15.1-3.6 3.3-.6 7.3-9 8.1-11.5.7-2.4-1-7.6-2.3-8.4-1.4-.8 4.5-.2 6.3 1.1 1.8 1.2 8.2-.7 10.5.9 2.1 1.6 6.5 5.1 9.6 7.8 0 0 0 0-1.6 6.3-3 10.7-3 10.7-3 10.7-9.7 2.5-13.2 8.7-10 9s17 8.9 20.6 12.5c3.7 3.6 6-3.5 7.6-5.8 1.6-2.2 2.2-9.3 1.4-10.8s4.9-.2 6.3 1.6 3.7-1.1 5.1-1.5c1.3-.4 2.8-6.3 3.7-7.4.8-1.1-2.5-2.8-2.3-4.3.1-1.5-6-5.4-8-6.7-2.1-1.4-2-5.9-.8-6.6 1.2-.6.2-6.7-.5-8.7-.8-2-7.4-4.6-9.7-4.9-2.3-.4-3.9-6-5.1-7-1.3-.9-9.9-3.2-12.2-2.8-2.2.3-5.2-7.1-9.2-5.5s-7.2-3.5-8.7-4.7-11.5 6.9-12.3 13.4c-.9 6.5 1.5 13.3 2.8 13.7 1.4.4-1.2 6-2.9 7.5-1.7 1.4-4.9-2.5-3.3-3.8 1.6-1.2-2.6-8.8-3.9-11.8-1-2.2-5.2-4.6-8.1-6.2-2 1.7-4.1 3.3-6 5.1.3 2.5.6 5.7-.4 7.9-1.9 3.8-5.3 3.9-5.3 2.2 0-.8-1.5-1.6-3.5-2.1-56.5 50.9-98.9 118-119.4 195.2 1.6 2.5 3.4 5.4 3.7 7.3.6 3.7 6.4 6.8 7.4 7.7 1 .8 2.5-6.5 2-8.5s1.9-2.9 1.7-1.4c-.2 1.4 4.5 8.7 6.1 11.4 1.6 2.6 1.3 18.1 2.7 21.6 1.3 3.5 17.9 12.8 23.4 14.8 5.4 2 11.7 9.3 12.5 11.3.8 1.9 8.2 4 9.7 4.9 1.5 1 4.6 6.6 6 7.8 1.4 1.3 2.2 4.5 2.1 5.3s9.2 5.9 11.3 9c2 3 6.1 2.8 7 1.8s1.9 5.7 2.7 8c.7 2.4.1 7.8-.8 8.6-.9.7-3.7 10.5-5.7 12.3-2 1.7-7.6 15.7-7.3 18.7.4 3 4.2 9.5 6.1 10.7 1.8 1.2.5 4.1-1.1 4.1s-2.8 13.9.6 16.5c3.5 2.2 5.7 8.8 5 9.7z"/><path d="m533.4 343.7c0 .1-.1.1 0 0z"/><path d="m530.4 172c4.9-.1 13-.3 13.7-1.6.6-1 1.1-4.3.4-5.5.7.1 1.6.3 2.3.4 1.8.3 6.2-9.2 8.5-11.3 2.2-2 13.6-3.9 16.4-5.1s9.3-5.8 11.6-6.1 6.2-5 5.8-6.1c-.4-1 8.2-4.7 11.4-5.5s5.2-4.1 4.1-4.5c-.7-.2-18.6 6.1-35 12.6-19.1 9.3-37.3 20.2-54.7 32.3 4.8.3 12.3.5 15.5.4z"/><path d="m747.1 708.7c5.5-2.3 16-13.9 19.3-16.1 3.2-2.3 6.7-11.7 7.6-13.7.9-2.1 5.7-4.8 7.4-5.1s9.9-21 15.1-25 13.8-25.9 14.4-34.2c.6-8.2 6.3-23.3 7.9-26.9 1.6-3.5 8.3-9.4 10.2-10.5 1.9-1.2 15.2-15.8 19.5-21 4.4-5.3 9.6-17.6 9.3-20.7s-7.6-6.3-9.2-5-9 1.5-11.2 1.1c-2.3-.3-5.8-13.3-8.7-16.3s-3.8-17.4-5.3-20.4c-1.5-2.9-5.8-10.4-7.2-12.2s-.6-9.3-.7-11.4 3 1.8 3.2 4.8c.2 3.1 6.9 16.3 8.9 20.7 2.1 4.4 7.1 18.2 8.2 22.5 1.2 4.3 16.8 4.5 22.1 2.8 5.3-1.6 12.1-4.7 12.5-6.1.4-1.3 8.8-3.9 11.3-5.3 2.4-1.4 5.7-10.3 7.3-11.6 1.7-1.3.3-10.4-.9-13.3-1.3-2.8-8.9-6.1-10.6-5.3-1.8.8-4.2-6.6-5.1-9.3-.8-2.7-6.4-6.7-6.8-8.5-.4-1.9 2.3-4.2 3.3-4.7s11 9 13.8 13.4c2.6 4.3 5.3 12.1 5.7 13.4s9.1 3.3 11.3 2c2.2-1.1 4.4-.4 4.9 1.6 0 0 0 0 2.9-.1 9.9-.2 9.9-.2 9.9-.2 3.8 5.6 4.6 10.1 4.3 11.1-.2.9 2.1 5.4 3.9 6.1 1.8.8 2.3 7.3 2.6 8.9.4 1.7 4.6 12 5.1 16.1.6 4.2 4.2 12.6 5 14.9.9 2.3.9 8.4.7 10.1-.2 1.6 2.9 5.3 5 5.6 2.2.1 8.7-13.1 10.5-18.1 1.7-5 6-8.8 6.9-8.7 1 .2 2.3-2.6 2.4-3.7s5.7-.2 6.4-1.5 3.7-10.3 5.9-11.4 10-4.8 12.7-5.3c2.6-.5 8.1 5.9 9.2 8.7 1.1 2.7 1.4 9.5.7 10.5s2.4 7.2 5.8 7.6 3.8 4.9 3.7 6.5 3.7 6.8 4.3 9c.6 2.1-.5 7.7-1.3 8.8-.8 1.2-1.4 8.5-1.1 10.6s9.2 14.2 12.7 18 6.7-5.8 5.1-9c-1.6-3.4-7.4-11.3-8.7-13.7s-.3-10.9.6-13.1c.9-2.3 5.8 2.2 7.8 4.2s4.4 6.3 4.3 7.5c-.1 1.3 15-4.5 16.7-12.9 1.8-8.5 7.8-17.3 8.5-19.5.8-2.2-.6-5.5-1.8-5.8-1.1-.3 3.1-6.2 7-5.6 3.9.7 14.8-8.5 17.7-12.3 2.8-3.9 7.8-6.6 8.4-7.1s5.2-9.9 6.3-13.9-.8-10.8-.8-13c0-2.1-2.7-7.5-3.4-9.2-.6-1.6-.6-7.5.1-8.5.6-1 4.3-1.7 4.9-2.5.5-.9 5.2-4.7 5.1-6.6 0-1.9 2.2 2.8 3.8 4.7 1.6 1.8 2.2 12.3 4.3 13.7 2.1 1.5 13.1-9.1 13.1-16.9s5.2-17 7.6-17.6c1.8-.5 7.1-6 10.6-10-11.9-61.9-38.2-119.6-75.8-168.6-.6 0-1.1-.1-1.5-.3-3.3-1.2-3.3-1.2-3.3-1.2-5.5-2.1-7.9-8.6-6.7-9.9.3-.4.5-1.4.3-2.7-2.8-3.3-5.6-6.6-8.6-9.9-2.7-.5-5.6-.8-7.2-1.1-3.5-.6-10.5-4.1-11.7-5.6-1.1-1.5-6 .4-6.6 2.8-.7 2.4-8.6 2.4-9.6 4.2-1.1 1.8-5.1 1.3-5.7.1s-8.3 1.4-12 1.4c-3.7-.1-10.9 1.9-12.6 2.4s-6 3.6-6.8 5.1c-.9 1.5-5.8 3.4-7.4 3.8-1.5.3-2.2 7.1-.5 8.3 1.8 1.2-3.3-1.3-5.6-2.9s-5.6 2.1-6.5 3.4c-1 1.3-2.9-1.3-2.5-3.2.4-2-5.5-4.5-6.5-3s-4.9-1.3-6.5-2.4-10.2 5.6-13.4 8-16.8 2.7-19.1 1.3-5.7 5.2-3.7 5.9-5.3-1.1-9.6-1.3c-4.2-.2-16.9 2.9-20 4.6-3.2 1.7-5.1-1.2-4.8-2.8.2-1.6-4.1-3.8-5.4-4.5s-5.3 8.4-7.9 9.8c-2.7 1.5-4.1-8.1-9.6-10.4-5.4-2.4-13.4-8.9-15.8-10-2.3-1.1-6.6-7-7.8-8.7-1.2-1.6-8.2-4-10.5-4.3s-10.3 2.9-12.5 4.3c-2.3 1.4-5.2.6-6.3 1.1s-10.6 7.5-14.2 9.6-10.9 12.3-13.1 14.7c-2.3 2.4-5 2.5-6.1 2.4s-2.4 2.7-2.6 3.8-10.4 4.7-12.1 8.9-1.1 14.5-1.6 18.1c-.5 3.5 2 11.1 4.7 11.6 2.6.5.4 6.2-.5 7.8-.9 1.5 1.2 3.7.8 5.1-.2 1.4-7.2 2.4-9.4 2.9s-6.2 4.6-6.9 6.3c-.6 1.4-7.2 1.5-9.6 3.4.7-1.5 1.8-3.4 2.5-4.4 1.5-2.1.4-6.4-.4-7.4-1-1 .2-12.7-1.1-15.3-1.3-2.7-4.6-7.5-5.6-8.5-.9-1 1.2-3.7 2.1-4.9.7-1.2-5.2-2.8-6.9-2.1-1.7.6-4.2 12-5.4 15.1-1.1 3 1.8 8.3 2.8 8.7s-.2 6-2.2 5.9c-2.1-.1-5.3 7.9-4.5 9.9.9 2.1-2.3 5.3-3.7 6-1.3.6 8.1 1.5 12.3 2s7.2 2.9 6.7 3.2c-.4.3-8.3.3-9.9 1.9-1.6 1.7-7.4 4.4-8.5 5.7-1.2 1.2 1 4.7 3.3 4.9 2.2.2 3.7 8.3 5.1 10 1.5 1.6.3 5.5-.6 6.6-1 .9-11.1-2.4-15.2-1.9-4.1.4-10.2 8-11 11.1s-1.1 12.3-1 14.9c.1 2.5 8.2 5.3 9.6 6.8 1.6 1.4 9.6 1.4 11.2 2.4 1.5 1 8.1-7 9.7-10.9 1.6-4 11.1-10.2 13.3-12.7 2.1-2.5 11.1-.9 13.5-2 2.5-1.1.1 7 .4 11.7.4 4.7 9.2 5.4 8.6.9-.7-4.4 1.7-6 1.8-4.4.2 1.5 8 6.2 9.3 8.8 1.2 2.7 0 7.7-1.8 7.4-1.9-.3-2.7 5.4-.8 6.3 1.8.8 5.5-5.8 7.7-6.5 2.3-.8 4.6-4.9 3.7-5.4s2.4-4 3.4-2.5-3.3-9.2-6.2-13.2c-3-4.2-.8-2.2 5 4.3 0 0 0 0 3.7 7 .7 1.3 1.4 5 2 6.4.8 2.1.8 2.1.8 2.1.6 2.4.5 8.6.3 10.3s2.9 5.4 5.1 5.6c2.1.2 3.7 1.6 3.2 1.6s.8 4.5 3 4.9c2.1.4 3.9-5 1.7-5.5-2.2-.4-.6-8.4-.4-11.9.3-3.6 2.5-6.2 3.2-6.1.8.1-1.1 7.2-1.3 8.9s.2 5.1 1 7.5c0 0 0 0 1.9 2.1 4.5 4.6 4.5 4.6 4.5 4.6 7.6-1.1 17 1.9 16.4 3.3-.6 1.5 5.1 2.6 5.7.3.7-2.3.6.1.4 1.8-.2 1.6-5.9 7.4-7.1 10.2-1.2 2.9-17.5-1.5-24.6-3.1-7.2-1.6-18-.7-19.2 1.4-1 2-11.3-6.7-16.1-9.6s-7.7-11.3-8.6-12.4c-1-1.2 1.4-3.5 1.1-5.1s-11.9-3.6-15.5-2.8c-3.6.7-21.4.1-25.8 1.3s-10.4-1.7-12.3-2.3-7.4 4.5-9.8 5.1c-2.6.7-6.7 8.4-9.3 17.1 0 0 0 0-4.1 5.7-2.6 3.7-2.6 3.7-2.6 3.7-6.4 3.5-14.9 17.3-17.3 20-2.3 2.7-6.8 23.6-7.9 30.7-1 7.1 3 23.1 4.2 27.5 1.1 4.4 10.6 15.2 13.9 17.9 3.2 2.7 14.9 4.6 18.7 5.2 3.8.5 8.7-2.5 10.8-6.7 0 0 0 0 5.5 1.4 2.5.6 2.5.6 2.5.6-.3 3.2 7.6 6.9 9.5 8.2 1.9 1.4 7.4 1.3 9.1 1.1 1.7-.3 1.4 14.6-.4 18.7-1.8 4 .1 19.4.6 24 .6 4.7 3.9 17.6 3.8 22.1s-5.7 18.5-7 23.5 3.5 20.3 4.7 25.5c1.1 5.1 1.1 15.9.7 18.3-.3 2.4 5.1 18.3 6 24.6 1.1 6.6 19.9 10.7 25.5 8.5z"/><path d="m1101.1 575.1c.4 1.1 5.7-2 8.6-2 3-.1 5.8-7.5 3.7-8.3-2.2-.9-4.2-7.3-5.7-8.2s-5.1 1.9-5.3 4.2c-.2 2.4-5.6 2.6-6.9 4.4s-1.5 3.2-.3 3.2c1-.1 5.6 5.6 5.9 6.7z"/><path d="m1089.3 616.1c1.5-.4 1-8.2-1.9-9.2-2.9-1.1-12.7 8.4-12 14.8.6 6.3 2.4 6.2 3.5 5 1-1.2 5.7 1.6 7 2.4 1.4.7 1.6-.8.5-3.3s1.3-9.4 2.9-9.7z"/><path d="m1074.1 606.3c.7-2.7 2.5-11.1 3.2-12.7.7-1.7-3.7-7.3-6-8.4-2.4-1.3-12.9 15-19.2 17.2-6.2 2.3-9.8 12.6-8.6 15.3 1.2 2.6 13 5.6 14.9 7.8s4.5.3 5.8.2 1-1 .6-1.4c-.5-.4 5-4.7 6.1-7.7.9-3 2.4-7.6 3.2-10.3z"/><path d="m1037.2 630.6c-4.2-2.4-9.9-.5-10.6 1.2s16.7 7 22.4 9.5c5.7 2.4 9.3 3.5 8.1 2.3-1.3-1.2-15.6-10.6-19.9-13z"/><path d="m1090 520c1.7-1.8-.4-11.6-2.4-9.7-2 1.8-1.6 7.4-1.3 9.4s1.9 2.1 3.7.3z"/><path d="m1097.8 541.5c1.4-2.2-.6-5.2-4.3-6.6s-4.8 10.3-3.3 12.1c1.4 1.6 6.2-3.2 7.6-5.5z"/><path d="m1107.6 616.2c4.1 3.9 14.6 3.8 15.9-2.4-4.2-3.6-15.4-4.6-15.9 2.4z"/><path d="m1125.4 473.8c-2.1 1-3.6 4.3-3.2 5.8-.3-.1-.5-.2-.8-.2-1.5-.2-2.6 5.9-1.1 7.1 1.4 1.3 6.1-3.9 8.4-5 2.2-1 6.4-1.3 6.9-.8.6.5 4.3-.1 8.4-1.2.7-.2 1.6-1.1 2.5-2.4-.2-4.6-.6-9.1-1.1-13.7-2.1 1.2-4.5 2.4-5.6 3.1-2.2 1.6-11.6 6-14.4 7.3z"/><path d="m1002.7 580.9s.1 0 0 0c-.7-.7-.7-.8 0 0z"/><path d="m1027.5 611.7c-1.1-4-5.7-11.2-10.2-16 0 0 0 0-1.5-3.4-1.6-3.8-1.6-3.8-1.6-3.8-1.3-4.1-6.6-7.9-6.9-9.1-.4-1.2-2.8 3-4.5 1.4.9.9 2.8 2.7 5.5 5.2 4.8 4.6 11.4 32 13.4 34.2 2.1 2.3 7-4.5 5.8-8.5z"/><path d="m951.4 558.1c-1.9 2.6 6.3 10.2 7.2 8.9 1-1.3 0-8.8-1.3-10.6-1.4-1.9-4-1.1-5.9 1.7z"/><path d="m811.2 679.2c-.1 3.1 5.8 6.5 7.7 6.3 1.9-.3 8.3-8.9 9.4-11.4 1.1-2.6 2.5-8.2 2.7-9.7.2-1.3 1.5-4.3 2.3-4.6.7-.2 2.3-3.2 3.6-6.6 1.1-3.5-1.1-20.4-.7-23.3.3-2.9-3.6 1-4.8 3.8-1.3 2.8-10.3 7.6-12.5 9.8-2.1 2.2-5.3 10.2-4.8 11.8.4 1.5-1.7 7-2.8 8.4-1 1.4.1 12.4-.1 15.5z"/><path d="m501.6 750.2c1.8.3 3.6.5 5.5.8 1.7-5.7-5.1-5.7-5.5-.8z"/><path d="m735.9 155.3c-2.4 0-8.2-2.1-8.9-3.3-1-1.2-9.7-3.4-12.5-2.7-2.7.7.1-6.4 3.9-6.7 3.6-.3 1.3-5.7-2.4-6.3-3.8-.6-13-3.3-15.3-3.1-2.2.2-6.2-2.5-7.9-2.9-1.5-.4-13.3 1.5-18.6.5s-18.4-2.3-21.4-1.9c-3 .3-5.8 5.6-5.7 7.6s-12.9.1-17-.4c-4.2-.6-26.8.9-33 3.3-6.1 2.3-11.8 9.7-9.9 10.1 1.9.5-3.9 4.3-7.1 4.9s-10.7.1-12.6 1.6 1.5 3.2 2 4.4c.5 1.3 2.9-.7 4.6.8 1.8 1.3 8.1 2.7 9.7 3.6 1.7.9-5.7 1.2-9.1 1s-3.6 6.4-1 7.7 9.5 3.3 10.4 2.3c.9-1.1 8.2 2.4 11.6 3.3 3.3.8 4.7 9.9 5.5 11.9s.1 8.6-.4 10.5c-.6 1.9 5.3 6.2 6.6 5.2s.4 3.1-2.2 2.5c-2.5-.6-1.9 6.9 1.1 8.4s.2 5.7-1.8 6.8c-1.9 1.1-1.6 5.5-3.7 6.8-2.1 1.2 4.2 17 3.1 24.4-1 7.5 2.8 14.2 4.5 14.5 1.8.2 7.7 2.7 8.2 4.4.6 1.7 4-.6 5.3-1.7s4.4-4.3 6.7-7.1c2.3-2.9 8.7-17.3 9.5-18.8s7.7.5 9.4-.1c1.6-.6 6.7-3.6 8.3-4.4 1.4-.9 12-3.7 15.2-5.3 3-1.6 8.7-9.4 11.1-10.9 2.3-1.5-.9-1.5-3.3-3.6s-1-4.1-.1-4.8 8.7 2.6 11.3 4.1 8.5-1.6 6.7-3.3c-1.8-1.8-.7-1.6.2-.8s2.7-4.7 1.8-5.8c-.9-1.2 9.2-6.6 8.5-13.2-.6-6.6 4.4-12.6 6.9-12.3s2.8-6.9-.1-8.1c-2.8-1.1 0-1.3 1.3-2.2 1.2-.8 3.5-7 3.1-8.4-.5-1.3 4.9-1.9 6-3.2s7.5-3.3 9.7-3.5c2.1-.3 4.1-5.8 1.8-5.8z"/><path d="m787 168c-2.8-1.3-8.9.9-8.5 2.8.5 1.9-4.4-3-8.4-1.5-4.1 1.4-6.1 7.9-4.4 9 1.6 1.2 2.1 6.6 2 7.6-.1 1.1 7.3 1.4 9.4.1s.9 5.6-1.3 7.2-.1 5.7 1.9 6.3 4 5.7 6.2 6c2.1.3 6.8-7.3 8.1-10.1 1.3-2.9 7.8.4 10.9 1.9 3.1 1.4 6-10.5 2.7-12.8-3.2-2.3-7.6-2-8.9-3.6-1.2-1.6-3.5-3.3-5.1-3.7-1.4-.5-2-7.9-4.6-9.2z"/><path d="m814 177.7c5.4 1.6 12.4-2.1 14-3.2s-14.9-7-21.3-8.1-11.7-1-11.8.3c-.2 1.3 13.5 9.4 19.1 11z"/><path d="m689.6 314.9c-1.4-.8-3 4.6-2.9 6.8 0 2.2 5.1 2.7 7.5 2.7 2.3-.1 4.3-1.6 4.4-3.4.2-1.9-1.8-10.5-3.1-10.7-1.2-.3-4.4 5.4-5.9 4.6z"/><path d="m715.6 252.7c-.9-2.2-9.7-3.2-11.9-3.7-2-.4-8.4-3.6-9.5-5.2-1-1.6-2.9 5.1-5.1 5.7-2.1.6.7 2.4 1.6 1.7.9-.6-.5 3.5-1.7 4.8-1.1 1.3 5.4 3.3 5.9 5.7.4 2.3 3 4.1 5.7 4 2.7 0 8.5-2 10.3-1.9 2.1.2 5.6-8.9 4.7-11.1z"/><path d="m907.8 228.8c3.4-2.6 16.5-4.9 18.4-7.8 1.9-3-.1-5.8-1.3-6-1.3-.2-3 1.1-3.4 1.6-.4.4-15.1 1.8-19.9 3.3-4.6 1.4-10.2 4-12.4 5.6-2.1 1.6-7.2 15.4-8.4 16.8-1.3 1.5 3.7 8.1 6 10.1 2.4 1.9 6 1.6 7 1.5 1.1-.1.2-10.4-.6-14-.9-3.8 11.2-8.5 14.6-11.1z"/><path d="m897.8 189.7c4 5.4 7.5-1 12.7.4 1.3-9.5-12.1-8.1-12.7-.4z"/><path d="m989 204.6c-.4 1.7 12.6 5 16.5 4.9 4-.1.2-6.8-5.5-7.2-5.7-.5-10.6.6-11 2.3z"/><path d="m498.8 233.8c-1.6 1-1.3 7.6 1.3 8.2s8.2-8.7 11.2-6.3c2.9 2.5 5 3.6 4.6 2.4-.4-1.1-9-6.5-10-7.4-1.1-.8-5.5 2-7.1 3.1z"/><path d="m501.1 457c-.2 1.1 5.6 1.8 6.8.1 1.1-1.6.9-3.1-.7-3.3-1.6-.3-6 2-6.1 3.2z"/><path d="m476.9 443.9c2.8-.2.9 4.1 1.3 5.8s6.9 3.9 8 5.2c1.2 1.2 5-1.3 7.6-.6s.4-9.2-4-9.6c-4.5-.3-7.4-5.1-8.3-5.8-1-.6-5.7-4.4-7-5.8s-12.3-4-16.2-4.5c-3.8-.5-8.6 2.7-9.3 3.9-.9 1.2 5.7 3 7.8 2.3s10.6 2.7 12.1 5.1c1.5 2.2 5.1 4.1 8 4z"/><path d="m463.5 451.5c-.2 1.1 5.7 1.3 7.1 1.5s1.5-.7.2-2.1-7.1-.4-7.3.6z"/><path d="m471.9 422.4c-1.4-.8-2.9 1.3-3 2.5-.2 1.1.5 2.1 1.5 2.3.9.1 2.9-4 1.5-4.8z"/><path d="m484 425c-.4-1.2-2.8-2.5-3.5-2.5-.8-.1-1.6 1.7-1.7 4-.3 2.4 5.5-.3 5.2-1.5z"/><path d="m490.7 439.8c2.5-.8 3.2-3.6 1.8-3.6-1.4-.1-3.4-4.6-4.8-5.4s-3.1 2.2-3.3 3.5c-.2 1.4.6 2.4 1.6 2.3 1.1-.2 2.2 3.9 4.7 3.2z"/><path d="m1124.3 623.5c-1.3.5-7.3.3-7.8-1-.6-1.2-2.3 2.1-3.6 2.5-1.4.4-1.1 3.6.9 2.9 1.5-.5 6.5 3.4 10.6 6.9 1.5-4.3 2.9-8.7 4.3-13.1-1.8.6-3.6 1.5-4.4 1.8z"/></g><path d="m544.8 165.8c-.3-.5-2.2.5-1.6 1.4.3.5 2.1-.5 1.6-1.4z" fill="#9ac7f7"/><path d="m569.9 303.5c-.2-.5-2.1.5-1.5 1.3.3.6 2.2-.4 1.5-1.3z" fill="#9ac7f7"/><path d="m581.2 592.2c1.6-1.3 7.5-6.9 7.8-8.3.3-1.3 1.6-4.8 2.8-7.7 0 0 0 0 .5-3.5.9-5.5.9-5.5.9-5.5-1-4.6-5-10.7-6.3-9.7-1.4 1-6.3-4.8-8.9-6.3-2.7-1.4-9.5-3.3-11.3-3.5-1.8-.3-7.2-6.2-9.8-7.5-2.6-1.2-9.5-3.6-10.6-4.6s-1.4-11.7-6.6-16c-5.2-4.2-14-13.6-14.7-16.7s-10.7-10.8-13.8-13.1-8.1-3.5-8.8-2.9c-.8.5-4.1-6.4-6-8.5s-8.2-4.6-8.8-3c-.5 1.6-4.7.1-5.5-1.4-.7-1.5-4.4-.1-6.1.3-1.6.2-8.2 7.7-11 9.4-2.8 1.6-5.2-2.6-6.8-3.6-1.5-.9-8 .1-9.9 1-1.9 1-4.4-9.6-2.8-14s-2.2-14.3-6-15.1c-3.9-.8-3.7-10.5-2.4-13.9s-6.1-6.7-8.1-7.2c-1.9-.6-7.5 3.6-8.7 5.9s-18-5.9-14.4-16.1c3.6-10.3 13.5-19.9 15.8-21 2.3-.9 13.7 0 16 1.8 2.2 1.8 4.7.7 5.3.1.5-.6 9.6 1.5 12.2 3s5 12.8 7.7 14.5 4.9-6.4 5.6-8.3c.7-2-.4-7.3-.8-8.8-.5-1.6 6.6-13.7 11.3-15.3 4.6-1.6 10.3-8.1 10.1-9.5-.3-1.3 3.7-1.8 4.9-2.2s1.4-11 3.5-13c2-2 10.8-5.6 13.6-6.3 2.7-.7 5.5-7 4.8-8.3-.8-1.3 7.7-6.6 11.7-7.3 4.1-.7 7 3.3 6 3.7.8-.3 6.7-2.4 9.2-3.5 2.9-1.3.9-6.6-.6-8.3s.4-7.2 2.5-7.5c2.2-.2 4.7-4.9 4.3-6-.4-1.2 8.5 2 12.4 0 3.8-2.1.1 6.4-3 9.6-3.1 3.1.9 7.2 2.6 6.8 1.7-.5 3.1 2.4 3.3 3.4s4-.5 6.2.8c2.2 1.4 4.1-2.6 4.6-4.6.5-1.9-4.7-6.7-5.3-9.2s1-16 1.2-18.7c.3-2.8-2.7-7.8-4.1-7.2-1.2.5-2.5-7.7-4.2-9.7s-1.6-5.9-1.3-7.1c.3-1.3-5.4-9.2-6.5-12.6s-3.4-3.1-3.8-1.7c-.4 1.5-5 1.1-6.9.6-1.8-.5-2.3-8-2-10.7.4-2.8-8.1-4.5-9.1-6.9s-6.8-2.2-7.5-3.8c-.7-1.7-5.4-3.8-6.4-3.4-1.1.4-3.4 20.2-5.1 25.5-1.7 5.2-6.9 9.2-8.6 8.9-1.6-.3-1.2 3.7 0 3.5s-4 5.4-5.2 9.4c-1.1 3.9-4.6-.9-4.8-4.6-.1-3.8-3.5-9.3-4.4-8.2s-3.3-2-4.7-1.4c-1.3.6-8.2-5.7-11-7.9-2.8-2-3.2-11.7-4.8-12.8-1.7-1.1 0-2 .2-3.4.2-1.5 6.9-6 9.1-8 2-1.9 9.9-9.5 12.8-11s5.6-6.1 5.3-7.1c-.3-.9 11.8-2.9 15.1-3.6 3.3-.6 7.3-9 8.1-11.5.7-2.4-1-7.6-2.3-8.4-1.4-.8 4.5-.2 6.3 1.1 1.8 1.2 8.2-.7 10.5.9 2.1 1.6 6.5 5.1 9.6 7.8 0 0 0 0-1.6 6.3-3 10.7-3 10.7-3 10.7-9.7 2.5-13.2 8.7-10 9s17 8.9 20.6 12.5c3.7 3.6 6-3.5 7.6-5.8 1.6-2.2 2.2-9.3 1.4-10.8s4.9-.2 6.3 1.6 3.7-1.1 5.1-1.5c1.3-.4 2.8-6.3 3.7-7.4.8-1.1-2.5-2.8-2.3-4.3.1-1.5-6-5.4-8-6.7-2.1-1.4-2-5.9-.8-6.6 1.2-.6.2-6.7-.5-8.7-.8-2-7.4-4.6-9.7-4.9-2.3-.4-3.9-6-5.1-7-1.3-.9-9.9-3.2-12.2-2.8-2.2.3-5.2-7.1-9.2-5.5s-7.2-3.5-8.7-4.7-11.5 6.9-12.3 13.4c-.9 6.5 1.5 13.3 2.8 13.7 1.4.4-1.2 6-2.9 7.5-1.7 1.4-4.9-2.5-3.3-3.8 1.6-1.2-2.6-8.8-3.9-11.8-1-2.2-5.2-4.6-8.1-6.2-2 1.7-4.1 3.3-6 5.1.3 2.5.6 5.7-.4 7.9-1.9 3.8-5.3 3.9-5.3 2.2 0-.8-1.5-1.6-3.5-2.1-56.5 50.9-98.9 118-119.4 195.2 1.6 2.5 3.4 5.4 3.7 7.3.6 3.7 6.4 6.8 7.4 7.7 1 .8 2.5-6.5 2-8.5s1.9-2.9 1.7-1.4c-.2 1.4 4.5 8.7 6.1 11.4 1.6 2.6 1.3 18.1 2.7 21.6 1.3 3.5 17.9 12.8 23.4 14.8 5.4 2 11.7 9.3 12.5 11.3.8 1.9 8.2 4 9.7 4.9 1.5 1 4.6 6.6 6 7.8 1.4 1.3 2.2 4.5 2.1 5.3s9.2 5.9 11.3 9c2 3 6.1 2.8 7 1.8s1.9 5.7 2.7 8c.7 2.4.1 7.8-.8 8.6-.9.7-3.7 10.5-5.7 12.3-2 1.7-7.6 15.7-7.3 18.7.4 3 4.2 9.5 6.1 10.7 1.8 1.2.5 4.1-1.1 4.1s-2.8 13.9.6 16.5c3.4 2.5 5.6 9.1 5 10.1-.8 1 5.3 9.4 7.8 12.2 2.4 2.9 6.5 15.7 7.2 19.7.6 4.1-1 10.4-1.6 12-.6 1.4.7 5 .8 6.4 0 1.4-4.4 12.7-4 17.5.3 4.9-8.3 18.6-9.2 26-.8 7.3 1.1 17.3 2.5 16.8 1.5-.6.8 6.9-1.5 7.4-2.3.6-5.8 6-4.5 6.5 1.2.5-1 6-1 8.4s-.2 17.8-.3 21.6c-.1 3.9 3.9 13.8 4.6 17.1s1 9.4 1.3 10.3c.2 1 .7 2 .7 2 .1 0 4.2 2.3 5.3 3.4 1.2 1.2 9.8 1.7 12.7 1.6 2.8-.2.6-3.1-.4-4.7s-1.2-8.4-2.5-9.3c-1.4-.8-.7-9.5.8-11.2 1.6-1.7 7.1-4 7.9-5.5.7-1.5 2.1-9 .8-10.2-1.2-1.2 1.9-10 1.5-14.6-.4-4.7 9-7.5 10-11 1.1-3.5 11.1-6 13.6-7.4 2.4-1.5 5.7-11.4 5-13.8-.7-2.3 4.1-3.5 6.1-3.2s4.5-.8 5.3-.7c.8 0 3.9-4.1 5.3-5 1.5-.8 5.7-11.2 8.3-12.7 2.7-1.4 5.6-7.6 5.8-9.5.3-1.9 4.8-7.1 6.2-8.6 1.4-1.6 10.9-4.4 12.6-4.8s6.1-14.4 7.6-19.5c1.3-5.1 5-11.6 5.4-13.2s3.5-2.7 4.1-3.2c.7-.8 3.7-7.1 5.3-8.4z" fill="#eaf4fe"/><path d="m533.5 343.7h-.1" fill="#eaf4fe"/><path d="m555.2 154c2.2-2 13.6-3.9 16.4-5.1s9.3-5.8 11.6-6.1 6.2-5 5.8-6.1c-.4-1 8.2-4.7 11.4-5.5s5.2-4.1 4.1-4.5c-.7-.2-18.6 6.1-35 12.6-19.1 9.3-37.3 20.2-54.7 32.3 4.8.3 12.3.5 15.6.4 4.9-.1 13-.3 13.7-1.6.6-1 1.1-4.3.4-5.5.7.1 1.6.3 2.3.4 1.7.2 6.2-9.3 8.4-11.3z" fill="#eaf4fe"/><path d="m952.7 253.9c-.2.2-.3.4-.4.5-1 1.3-2.9-1.3-2.5-3.2.4-2-5.5-4.5-6.5-3s-4.9-1.3-6.5-2.4-10.2 5.6-13.4 8-16.8 2.7-19.1 1.3-5.7 5.2-3.7 5.9-5.3-1.1-9.6-1.3c-4.2-.2-16.9 2.9-20 4.6-3.2 1.7-5.1-1.2-4.8-2.8.2-1.6-4.1-3.8-5.4-4.5s-5.3 8.4-7.9 9.8c-2.7 1.5-4.1-8.1-9.6-10.4-5.4-2.4-13.4-8.9-15.8-10-2.3-1.1-6.6-7-7.8-8.7-1.2-1.6-8.2-4-10.5-4.3s-10.3 2.9-12.5 4.3c-2.3 1.4-5.2.6-6.3 1.1s-10.6 7.5-14.2 9.6-10.9 12.3-13.1 14.7c-2.3 2.4-5 2.5-6.1 2.4s-2.4 2.7-2.6 3.8-10.4 4.7-12.1 8.9-1.1 14.5-1.6 18.1c-.5 3.5 2 11.1 4.7 11.6 2.6.5.4 6.2-.5 7.8-.9 1.5 1.2 3.7.8 5.1-.2 1.4-7.2 2.4-9.4 2.9s-6.2 4.6-6.9 6.3c-.6 1.4-7.2 1.5-9.6 3.4.7-1.5 1.8-3.4 2.5-4.4 1.5-2.1.4-6.4-.4-7.4-1-1 .2-12.7-1.1-15.3-1.3-2.7-4.6-7.5-5.6-8.5-.9-1 1.2-3.7 2.1-4.9.7-1.2-5.2-2.8-6.9-2.1-1.7.6-4.2 12-5.4 15.1-1.1 3 1.8 8.3 2.8 8.7s-.2 6-2.2 5.9c-2.1-.1-5.3 7.9-4.5 9.9.9 2.1-2.3 5.3-3.7 6-1.3.6 8.1 1.5 12.3 2s7.2 2.9 6.7 3.2c-.4.3-8.3.3-9.9 1.9-1.6 1.7-7.4 4.4-8.5 5.7-1.2 1.2 1 4.7 3.3 4.9 2.2.2 3.7 8.3 5.1 10 1.5 1.6.3 5.5-.6 6.6-1 .9-11.1-2.4-15.2-1.9-4.1.4-10.2 8-11 11.1s-1.1 12.3-1 14.9c.1 2.5 8.2 5.3 9.6 6.8 1.6 1.4 9.6 1.4 11.2 2.4 1.5 1 8.1-7 9.7-10.9 1.6-4 11.1-10.2 13.3-12.7 2.1-2.5 11.1-.9 13.5-2 2.5-1.1.1 7 .4 11.7.4 4.7 9.2 5.4 8.6.9-.7-4.4 1.7-6 1.8-4.4.2 1.5 8 6.2 9.3 8.8 1.2 2.7 0 7.7-1.8 7.4-1.9-.3-2.7 5.4-.8 6.3 1.8.8 5.5-5.8 7.7-6.5 2.3-.8 4.6-4.9 3.7-5.4s2.4-4 3.4-2.5-3.3-9.2-6.2-13.2c-3-4.2-.8-2.2 5 4.3 0 0 0 0 3.7 7 .7 1.3 1.4 5 2 6.4.8 2.1.8 2.1.8 2.1.6 2.4.5 8.6.3 10.3s2.9 5.4 5.1 5.6c2.1.2 3.7 1.6 3.2 1.6s.8 4.5 3 4.9c2.1.4 3.9-5 1.7-5.5-2.2-.4-.6-8.4-.4-11.9.3-3.6 2.5-6.2 3.2-6.1.8.1-1.1 7.2-1.3 8.9s.2 5.1 1 7.5c0 0 0 0 1.9 2.1 4.5 4.6 4.5 4.6 4.5 4.6 7.6-1.1 17 1.9 16.4 3.3-.6 1.5 5.1 2.6 5.7.3.7-2.3.6.1.4 1.8-.2 1.6-5.9 7.4-7.1 10.2-1.2 2.9-17.5-1.5-24.6-3.1-7.2-1.6-18-.7-19.2 1.4-1 2-11.3-6.7-16.1-9.6s-7.7-11.3-8.6-12.4c-1-1.2 1.4-3.5 1.1-5.1s-11.9-3.6-15.5-2.8c-3.6.7-21.4.1-25.8 1.3s-10.4-1.7-12.3-2.3-7.4 4.5-9.8 5.1c-2.6.7-6.7 8.4-9.3 17.1 0 0 0 0-4.1 5.7-2.6 3.7-2.6 3.7-2.6 3.7-6.4 3.5-14.9 17.3-17.3 20-2.3 2.7-6.8 23.6-7.9 30.7-1 7.1 3 23.1 4.2 27.5 1.1 4.4 10.6 15.2 13.9 17.9 3.2 2.7 14.9 4.6 18.7 5.2 3.8.5 8.7-2.5 10.8-6.7 0 0 0 0 5.5 1.4 2.5.6 2.5.6 2.5.6-.3 3.2 7.6 6.9 9.5 8.2 1.9 1.4 7.4 1.3 9.1 1.1 1.7-.3 1.4 14.6-.4 18.7-1.8 4 .1 19.4.6 24 .6 4.7 3.9 17.6 3.8 22.1s-5.7 18.5-7 23.5 3.5 20.3 4.7 25.5c1.1 5.1 1.1 15.9.7 18.3-.3 2.4 5.1 18.3 6 24.6.8 6.4 19.6 10.5 25.2 8.3 5.5-2.3 16-13.9 19.3-16.1 3.2-2.3 6.7-11.7 7.6-13.7.9-2.1 5.7-4.8 7.4-5.1s9.9-21 15.1-25 13.8-25.9 14.4-34.2c.6-8.2 6.3-23.3 7.9-26.9 1.6-3.5 8.3-9.4 10.2-10.5 1.9-1.2 15.2-15.8 19.5-21 4.4-5.3 9.6-17.6 9.3-20.7s-7.6-6.3-9.2-5-9 1.5-11.2 1.1c-2.3-.3-5.8-13.3-8.7-16.3s-3.8-17.4-5.3-20.4c-1.5-2.9-5.8-10.4-7.2-12.2s-.6-9.3-.7-11.4 3 1.8 3.2 4.8c.2 3.1 6.9 16.3 8.9 20.7 2.1 4.4 7.1 18.2 8.2 22.5 1.2 4.3 16.8 4.5 22.1 2.8 5.3-1.6 12.1-4.7 12.5-6.1.4-1.3 8.8-3.9 11.3-5.3 2.4-1.4 5.7-10.3 7.3-11.6 1.7-1.3.3-10.4-.9-13.3-1.3-2.8-8.9-6.1-10.6-5.3-1.8.8-4.2-6.6-5.1-9.3-.8-2.7-6.4-6.7-6.8-8.5-.4-1.9 2.3-4.2 3.3-4.7s11 9 13.8 13.4c2.6 4.3 5.3 12.1 5.7 13.4s9.1 3.3 11.3 2c2.2-1.1 4.4-.4 4.9 1.6 0 0 0 0 2.9-.1 9.9-.2 9.9-.2 9.9-.2 3.8 5.6 4.6 10.1 4.3 11.1-.2.9 2.1 5.4 3.9 6.1 1.8.8 2.3 7.3 2.6 8.9.4 1.7 4.6 12 5.1 16.1.6 4.2 4.2 12.6 5 14.9.9 2.3.9 8.4.7 10.1-.2 1.6 2.9 5.3 5 5.6 2.2.1 8.7-13.1 10.5-18.1 1.7-5 6-8.8 6.9-8.7 1 .2 2.3-2.6 2.4-3.7s5.7-.2 6.4-1.5 3.7-10.3 5.9-11.4 10-4.8 12.7-5.3c.8-.2 1.9.4 3.1 1.3 1-5.5 1.9-10.9 2.8-16.4 12.5-86.7-3.9-171-41.8-243.3z" fill="#eaf4fe"/><path d="m958.6 567c1-1.3 0-8.8-1.3-10.6-1.4-1.9-4-1.1-5.9 1.7-1.9 2.6 6.3 10.2 7.2 8.9z" fill="#eaf4fe"/><path d="m811.2 679.2c-.1 3.1 5.8 6.5 7.7 6.3 1.9-.3 8.3-8.9 9.4-11.4 1.1-2.6 2.5-8.2 2.7-9.7.2-1.3 1.5-4.3 2.3-4.6.7-.2 2.3-3.2 3.6-6.6 1.1-3.5-1.1-20.4-.7-23.3.3-2.9-3.6 1-4.8 3.8-1.3 2.8-10.3 7.6-12.5 9.8-2.1 2.2-5.3 10.2-4.8 11.8.4 1.5-1.7 7-2.8 8.4-1 1.4.1 12.4-.1 15.5z" fill="#eaf4fe"/><path d="m501.6 750.2c1.8.3 3.6.5 5.5.8 1.7-5.7-5.1-5.7-5.5-.8z" fill="#eaf4fe"/><path d="m630.1 136c-4.2-.6-26.8.9-33 3.3-6.1 2.3-11.8 9.7-9.9 10.1 1.9.5-3.9 4.3-7.1 4.9s-10.7.1-12.6 1.6 1.5 3.2 2 4.4c.5 1.3 2.9-.7 4.6.8 1.8 1.3 8.1 2.7 9.7 3.6 1.7.9-5.7 1.2-9.1 1s-3.6 6.4-1 7.7 9.5 3.3 10.4 2.3c.9-1.1 8.2 2.4 11.6 3.3 3.3.8 4.7 9.9 5.5 11.9s.1 8.6-.4 10.5c-.6 1.9 5.3 6.2 6.6 5.2s.4 3.1-2.2 2.5c-2.5-.6-1.9 6.9 1.1 8.4s.2 5.7-1.8 6.8c-1.9 1.1-1.6 5.5-3.7 6.8-2.1 1.2 4.2 17 3.1 24.4-1 7.5 2.8 14.2 4.5 14.5 1.8.2 7.7 2.7 8.2 4.4.6 1.7 4-.6 5.3-1.7s4.4-4.3 6.7-7.1c2.3-2.9 8.7-17.3 9.5-18.8s7.7.5 9.4-.1c1.6-.6 6.7-3.6 8.3-4.4 1.4-.9 12-3.7 15.2-5.3 3-1.6 8.7-9.4 11.1-10.9 2.3-1.5-.9-1.5-3.3-3.6s-1-4.1-.1-4.8 8.7 2.6 11.3 4.1 8.5-1.6 6.7-3.3c-1.8-1.8-.7-1.6.2-.8s2.7-4.7 1.8-5.8c-.9-1.2 9.2-6.6 8.5-13.2-.6-6.6 4.4-12.6 6.9-12.3s2.8-6.9-.1-8.1c-2.8-1.1 0-1.3 1.3-2.2 1.2-.8 3.5-7 3.1-8.4-.5-1.3 4.9-1.9 6-3.2s7.5-3.3 9.7-3.5c2.1-.2 4.2-5.7 1.9-5.7-2.4 0-8.2-2.1-8.9-3.3-1-1.2-9.7-3.4-12.5-2.7-2.7.7.1-6.4 3.9-6.7 3.6-.3 1.3-5.7-2.4-6.3-3.8-.6-13-3.3-15.3-3.1-2.2.2-6.2-2.5-7.9-2.9-1.5-.4-13.3 1.5-18.6.5s-18.4-2.3-21.4-1.9c-3 .3-5.8 5.6-5.7 7.6 0 1.9-13-.1-17.1-.5z" fill="#eaf4fe"/><path d="m777.7 199.4c2 .6 4 5.7 6.2 6 2.1.3 6.8-7.3 8.1-10.1 1.3-2.9 7.8.4 10.9 1.9 3.1 1.4 6-10.5 2.7-12.8-3.2-2.3-7.6-2-8.9-3.6-1.2-1.6-3.5-3.3-5.1-3.7-1.4-.5-2-7.8-4.6-9.2-2.8-1.3-8.9.9-8.5 2.8.5 1.9-4.4-3-8.4-1.5-4.1 1.4-6.1 7.9-4.4 9 1.6 1.2 2.1 6.6 2 7.6-.1 1.1 7.3 1.4 9.4.1s.9 5.6-1.3 7.2c-2.1 1.7-.1 5.7 1.9 6.3z" fill="#eaf4fe"/><path d="m828 174.5c1.6-1.1-14.9-7-21.3-8.1s-11.7-1-11.8.3 13.6 9.4 19.2 11c5.3 1.6 12.3-2.1 13.9-3.2z" fill="#eaf4fe"/><path d="m689.6 314.9c-1.4-.8-3 4.6-2.9 6.8 0 2.2 5.1 2.7 7.5 2.7 2.3-.1 4.3-1.6 4.4-3.4.2-1.9-1.8-10.5-3.1-10.7-1.2-.3-4.4 5.4-5.9 4.6z" fill="#eaf4fe"/><path d="m715.6 252.7c-.9-2.2-9.7-3.2-11.9-3.7-2-.4-8.4-3.6-9.5-5.2-1-1.6-2.9 5.1-5.1 5.7-2.1.6.7 2.4 1.6 1.7.9-.6-.5 3.5-1.7 4.8-1.1 1.3 5.4 3.3 5.9 5.7.4 2.3 3 4.1 5.7 4 2.7 0 8.5-2 10.3-1.9 2.1.2 5.6-8.9 4.7-11.1z" fill="#eaf4fe"/><path d="m889.2 225.4c-2.1 1.6-7.2 15.4-8.4 16.8-1.3 1.5 3.7 8.1 6 10.1 2.4 1.9 6 1.6 7 1.5 1.1-.1.2-10.4-.6-14-.9-3.7 11.2-8.3 14.6-10.9s16.5-4.9 18.4-7.8c1.9-3-.1-5.8-1.3-6-1.3-.2-3 1.1-3.4 1.6-.4.4-15.1 1.8-19.9 3.3-4.6 1.3-10.2 3.9-12.4 5.4z" fill="#eaf4fe"/><path d="m897.8 189.7c4 5.4 7.5-1 12.7.4.1-.4-.1-.6-.1-.9-1.5-1.9-2.9-3.7-4.4-5.6-3.5-.5-7.9 1.7-8.2 6.1z" fill="#eaf4fe"/><path d="m498.8 233.8c-1.6 1-1.3 7.6 1.3 8.2s8.2-8.7 11.2-6.3c2.9 2.5 5 3.6 4.6 2.4-.4-1.1-9-6.5-10-7.4-1.1-.8-5.5 2-7.1 3.1z" fill="#eaf4fe"/><path d="m501.1 457c-.2 1.1 5.6 1.8 6.8.1 1.1-1.6.9-3.1-.7-3.3-1.6-.3-6 2-6.1 3.2z" fill="#eaf4fe"/><path d="m476.9 443.9c2.8-.2.9 4.1 1.3 5.8s6.9 3.9 8 5.2c1.2 1.2 5-1.3 7.6-.6s.4-9.2-4-9.6c-4.5-.3-7.4-5.1-8.3-5.8-1-.6-5.7-4.4-7-5.8s-12.3-4-16.2-4.5c-3.8-.5-8.6 2.7-9.3 3.9-.9 1.2 5.7 3 7.8 2.3s10.6 2.7 12.1 5.1c1.5 2.2 5.1 4.1 8 4z" fill="#eaf4fe"/><path d="m463.5 451.5c-.2 1.1 5.7 1.3 7.1 1.5s1.5-.7.2-2.1-7.1-.4-7.3.6z" fill="#eaf4fe"/><path d="m471.9 422.4c-1.4-.8-2.9 1.3-3 2.5-.2 1.1.5 2.1 1.5 2.3.9.1 2.9-4 1.5-4.8z" fill="#eaf4fe"/><path d="m484 425c-.4-1.2-2.8-2.5-3.5-2.5-.8-.1-1.6 1.7-1.7 4-.3 2.4 5.5-.3 5.2-1.5z" fill="#eaf4fe"/><path d="m490.7 439.8c2.5-.8 3.2-3.6 1.8-3.6-1.4-.1-3.4-4.6-4.8-5.4s-3.1 2.2-3.3 3.5c-.2 1.4.6 2.4 1.6 2.3 1.1-.2 2.2 3.9 4.7 3.2z" fill="#eaf4fe"/><path d="m460 391c-16.3 0-29.5 13.2-29.5 29.5s29.5 61 29.5 61 29.5-44.7 29.5-61-13.2-29.5-29.5-29.5zm1.7 39.7c-6.1 1.1-11.4-4.1-10.2-10.2.6-3.4 3.4-6.2 6.8-6.9 6.2-1.2 11.5 4.1 10.3 10.3-.7 3.4-3.5 6.1-6.9 6.8z" fill="#ff5931"/><path d="m509.5 261.4c-16.3 0-29.5 13.2-29.5 29.5s29.5 61 29.5 61 29.5-44.7 29.5-61c-.1-16.3-13.3-29.5-29.5-29.5zm1.6 39.7c-6.1 1.1-11.4-4.1-10.2-10.2.6-3.4 3.4-6.2 6.8-6.9 6.2-1.2 11.5 4.1 10.3 10.3-.7 3.4-3.5 6.1-6.9 6.8z" fill="#ff5931"/><g clip-path="url(#a)"><path d="m243.5 270.6s36.1-22.8 15.5-68c-11.5-25 3.3-88.1 46.8-63s34-1.1 58.6 12.9 34.1 31.9 28.6 49.7c-5.6 17.7-7.3 52.5 7.9 61 15.1 8.5 62.8 57.1 8.3 98.4-54.6 41.2-204.9-16.5-165.7-91z" fill="#212957"/><path d="m320.3 216.8c-1.7-20.3-16.3 4.8-16.3 4.8s7 26.2 0 45.4c2.6 1.6 28.7 34.5 42 5-15-19.6-24.6-41.9-25.7-55.2z" fill="#f7b68b"/><path d="m306.9 240.4c3.9 4.5 8.8 8 14.6 10.2 3.9 1.5 7.9 2.2 12 2.3-7.7-13.7-12.4-27-13.1-36.1-1.7-20.3-16.3 4.8-16.3 4.8s2.1 8.1 2.8 18.8z" fill="#ec9568"/><path d="m332.3 181.6s13.3 20.3 14.2 32.9c.9 12.5 2.6 28.6-9.8 29.9-10 1-21.4-13.2-27.9-19-6.3-5.7 6.5-16-7.4-36.7-5.1-7.6 25.1 1.1 30.9-7.1z" fill="#f7b68b"/><path d="m378 375.1 45.2 76.5s-2.9 13.1-10.2 5.8-30.6-26.2-30.6-26.2-32.1-72.9-4.4-56.1z" fill="#ec9568"/><path d="m409.3 448.7s3.6 14.6 5.1 21.9 8.7 27 11.7 29.9c2.9 2.9 2.9 2.9 2.9 2.9l-5.1-18.6 5.5 6.6s2.9 10.9 4 12.4 2.9 2.2 2.9 2.2c3.6 1.8 4.4-.4 4.4-.4l-2.6-13.8-4-10.2 6.6 6.2s1.5 11.7 2.6 12.8 3.6.4 3.6.4l-2.5-16.4-10.6-15.3s2.2-1.1 4.7 2.2 5.1 4.7 6.9 4.7-5.1-9.5-6.9-10.9c-1.8-1.5-4.7-10.6-12.8-13.1-8-2.8-16.4-3.5-16.4-3.5z" fill="#ec9568"/><path d="m257 785.3s-1 9.5-1 12.4 6.3 11.2 6.8 13.6.5 2.4.5 2.4h-47.6s-1-4.9 6.8-11.2 10.2-10.7 11.2-18.7 23.3 1.5 23.3 1.5z" fill="#c5e1f9"/><path d="m322.8 786.5-4.9 26.2h74.3s.5-8.3-8.3-10.7c-8.7-2.4-32.5-9.7-38.9-17.5-6.2-7.7-22.2 2-22.2 2z" fill="#c5e1f9"/><path d="m370.3 276.7c-5.6-4.2-16-11.7-30.2-10.9-14.2.7 8.4 23.7 19.3 31s16 4.7 16 4.7 2.2-19.3-5.1-24.8z" fill="#dd000b"/><path d="m379.2 405s22.3 71.5-8.5 196.9c-6.6 26.7-5.1 30.7-9.1 53.5-12.6 70.8-15.6 126.9-17.9 129-5.2 4.7-20.3-.2-25.5-2.2-2.1-.8 7.3-156.4 8.4-174.9 1.5-26.4-9.8-61.8-3.6-91.4 6.6-31 51.2-126.4 56.2-110.9z" fill="#212957"/><path d="m292 406.4s-20.4 44.4-22.6 64.8c-2.1 19.6-3.6 136.2-3.6 136.2s-16.8 39.3-21.9 58.3c-5.1 18.9-10.2 118-10.2 118l23.3 1.5 74.3-272.5 51-103.2z" fill="#3b47bc"/><path d="m296.3 431.1c-18.2 42.1-22.5 180-22.5 180s-34.2 79.4-35.7 159.6" fill="none" stroke="#7eb3ff" stroke-miterlimit="10" stroke-width="2.5641"/><path d="m296 266.9s-17.1 16.8-14.9 32.8 10.4 23 13.4 43.4c2.9 20.4-11.8 75.6-8.4 77.9 41.6 27.7 101.2 14.8 101.2 14.8s-16.3-79.4-6.3-102.4c3.8-8.7 2.6-28.5-9.1-35.8s-28.8-32.1-28.8-32.1-36.5-4.1-47.1 1.4z" fill="#fd2227"/><path d="m296 266.9s-17.1 1.5-23.3 14.9c-6.2 13.5-21.1 73.6-21.1 88.5s1.8 21.5 1.8 21.5l39-20.8c0 .1 8.7-102.7 3.6-104.1z" fill="#dd000b"/><path d="m389.8 352.5h-21.5c-2.4 0-3.7-2-2.8-4.4l17.6-48.4c.9-2.4 3.6-4.4 6-4.4h21.5c2.4 0 3.7 2 2.8 4.4l-17.6 48.4c-.9 2.4-3.6 4.4-6 4.4z" fill="#eaf4fe"/><path d="m253.4 391.8s.7 8.4.7 10.2 8 4 16.4 4 70.3-35.7 76.1-38.3 19.3-6.2 22.6-6.6 5.8-9.5 4-15.3c-1.2-3.9-2.4-7.2-4.2-8.3-.9-.6-2-.5-3.4.3-4 2.5-20 16.4-20 16.4s-37.5 6.9-52.5 13.5c-14.9 6.7-32.4 14.7-39.7 24.1z" fill="#f7b68b"/><path d="m388.2 340.1-19.2-2.5 4.2 8.3-2.6 12.8 10.6 1.8s1.5-1.8-.4-2.6c-1.8-.7-4.4-1.8-4.4-1.8s5.1-.7 7.3-1.1 2.6-1.1 2.6-2.2-2.2-1.8-2.2-1.8 4-1.5 4.4-2.6 1.1-2.6.4-3.6.4-4-.7-4.7z" fill="#ec9568"/></g><circle cx="340.6" cy="263.9" fill="none" r="134.7" stroke="#0561fc" stroke-width="2.5641"/><circle cx="296.2" cy="570.9" fill="none" r="134.7" stroke="#0561fc" stroke-width="2.5641"/><circle cx="929.2" cy="565.7" fill="none" r="134.7" stroke="#0561fc" stroke-width="2.5641"/><g clip-path="url(#b)"><path d="m851.9 994.9 1.8 20.5s-22.3 5.1-29.6 4.4-16.4-1.1-16.4-1.1-1.1-4.4 4.4-6.9c5.5-2.6 22.6-8.4 24.5-9.5 1.8-1.1 4-5.5 4-5.5z" fill="#212957"/><path d="m955 1001.4-.4 13.9s-10.6 6.6-16.1 7.7-12.4-.4-12.4-.4-2.2-4.4.7-6.6 13.2-11 14.2-13.5c1.2-2.5 14-1.1 14-1.1z" fill="#212957"/><path d="m898.3 662.4h67.2s4.6 38 4.4 51.1c-.7 38.7-8.3 156.4-8.3 156.4l-3.9 131.5-19.5 1-11.7-154.9-12.7-159.8z" fill="#003e99"/><path d="m854.5 996.6 33.1-154.9 42.9-146.1v-33.2h-50.7l-28.2 167.6-14.6 169.5z" fill="#003e99"/><path d="m899.8 447.2s-4-10.3-3.4-13.6c1.9-10.2 9.3-4.4 9.3-4.4s13.6-5.8 21.9 0 12.2 9.3 12.2 13.2-5.4-2.9 0-3.9 8.8 6.8 6.8 13.2c-1.9 6.3-3.9 24.4-14.6 26.3-10.8 1.8-32.2-30.8-32.2-30.8z" fill="#212957"/><path d="m906.1 513.9 1.5-25.3 20.4-11.2 3 41.8-11.7 21.5z" fill="#f7b68b"/><path d="m906.6 505.8c15.3-3 18.3-17.9 18.7-26.9l-17.7 9.7z" fill="#ec9568"/><path d="m900.3 438.4s-8.8 16.6-10.7 30.7-1.5 26.3 5.8 25.8 23.9-4.9 31.7-10.7 13.6-17 8.8-19.5c-4.9-2.4-8.3 2.9-8.3 2.9s-4.4-2.9-1.5-9.7 19-17 3.4-15.6-31.2 1-29.2-3.9z" fill="#f7b68b"/><path d="m864.7 540.2c2.4-.5 39-21.4 39-21.4l15.1 10.7 12.2-10.2 44.8 15.6-8.8 83.3-1.5 44.3h-85.7z" fill="#fd2227"/><path d="m918.8 529.5-12.7-15.6-2.4 4.9 4.9 25.3z" fill="#fff"/><path d="m918.8 529.5 8.3 11.7 7.8-23.4-5.4-4.4z" fill="#fff"/><path d="m842.9 643.6c-6.5-8.8 5.7-23 8.2-38.1 2.4-15 9.7-65.8 13.6-65.3 3.9.4 13.2 67.5 13.2 67.5l-6.5 39.2c-.1.1-23.6 3.2-28.5-3.3z" fill="#fff"/><path d="m975.8 534.8 48.2 87.7 2.9 5.8-1 12.7-29.2-6.8-.5-9.7-31.6-45.3z" fill="#fff"/><g fill="#f7b68b"><path d="m1002.1 633.2-30.2 47.2h-10.7s-5.8 1-3.4 7.8 7.8 11.2 7.8 11.2l12.2-9.7 44.3-47.7z"/><path d="m843.8 635.7-21-72 2.5-9-3.4-10.8s1.4-.5 1.7.2c2 4.6 10.5 20 10.5 20 1.4-3.5 2.1-10.9 3.8-7.3s.5 14.1.6 16.1-1.8 5.7-1.8 5.7 25.3 44.2 25.3 50.2c.1 8-18.2 6.9-18.2 6.9z"/><path d="m825.7 555.8s-3.6-9.8-4.5-11.4c-.3-.5-2.8-1-2.5-.1s3.8 10.6 5.3 13.7c1.6 3.1 1.7-2.2 1.7-2.2z"/><path d="m825.3 560s-4.5-9.1-6.8-12.4c-.4-.5-2.4-.9-2.1 0s5.1 10.5 6.6 13.4c1.6 3.1 2.3-1 2.3-1z"/><path d="m825.7 565.9s-4.8-9.7-7.6-11.7c-.4-.2-1.5-.4-1.1.5s5 10.7 6.8 13.6c1.8 2.8 1.9-2.4 1.9-2.4z"/></g></g><path d="m501.4 399.3s164.3-107.7 347.3-16.3" fill="none" stroke="#7eb3ff" stroke-dasharray="10.2564" stroke-miterlimit="10" stroke-width="4.894"/><path d="m516.8 334.5s206.3-71.6 332 48.5" fill="none" stroke="#7eb3ff" stroke-dasharray="10.2564" stroke-miterlimit="10" stroke-width="4.894"/><path d="m864.7 407.8s134.8-81 226 52.4" fill="none" stroke="#7eb3ff" stroke-dasharray="10.2564" stroke-miterlimit="10" stroke-width="4.894"/><path d="m1099.5 406.3c-16.3 0-29.5 13.2-29.5 29.5s29.5 61 29.5 61 29.5-44.7 29.5-61-13.2-29.5-29.5-29.5zm1.7 39.7c-6.1 1.1-11.4-4.1-10.2-10.2.6-3.4 3.4-6.2 6.8-6.9 6.2-1.2 11.5 4.1 10.3 10.3-.7 3.4-3.5 6.2-6.9 6.8z" fill="#ff5931"/><path d="m857.3 353.4c-16.3 0-29.5 13.2-29.5 29.5s29.5 61 29.5 61 29.5-44.7 29.5-61-13.2-29.5-29.5-29.5zm1.7 39.7c-6.1 1.1-11.4-4.1-10.2-10.2.6-3.4 3.4-6.2 6.8-6.9 6.2-1.2 11.5 4.1 10.3 10.3-.7 3.4-3.5 6.2-6.9 6.8z" fill="#ff5931"/><g clip-path="url(#c)"><path d="m380.4 755.1 12.1-8.2 1.4-1.7-2-2.7-2.8.6-.2-8.4-13.6-1.2-7.1-2.6 8.3 21.9" fill="#f7b68b"/><path d="m409.7 669.8-41.3 60.1s2.4 8 5.7 3.4c.4-.6-2-2 .7-3.8 10.8-7.2 36.6-19 45.6-29.3 11.9-13.6 19.8-29.1 19.8-29.1z" fill="#f7b68b"/><path d="m379.8 704.5h18.3v16.6h-18.3z" fill="#e7f5fe" transform="matrix(.6164 -.7874 .7874 .6164 -412.0588 579.726)"/><path d="m370.2 593.3 38.7 60.3-29 55.4s14.3 15.9 19 13.1c32-19 51.9-71.6 51.9-71.6l-61.4-90-18-23.7c-22.9-2.7-8.1 63-1.2 56.5z" fill="#163f59"/><path d="m199.9 591.1s-21.1-12.9-47.4-44.2c-8.9-10.6-4.5.9-3 14.2s27.3 32.9 51.5 47c21.4 12.3-1.1-17-1.1-17z" fill="#f7b68b"/><path d="m154.6 555.1s4.2-14.2 2-17.8-10.9-16-10.9-16l-2.5-3s-4.6 1.2 1.4 9.5 1 6 1 6l-8.1-5.3-10.4-5.7-4.3-3.1s-2.3-2-3.2-1.9c-2.7.1-1.6 2.3-1.6 2.3l15.8 13.7-17.7-8.4s-2.4-.7-3.2.5c-.7 1.1 0 1.5 0 1.5l18 14.6-9.6-3.2s-2.4-.6-3.2.5c-.9 1.2-1.1 1.5-1.1 1.5l35.4 17.9z" fill="#f7b68b"/><path d="m147.8 555.3h18.3v14.7h-18.3z" fill="#e7f5fe" transform="matrix(.8031 -.5958 .5958 .8031 -304.358 204.2943)"/><path d="m306.6 556.1s2.3 11.2-38.3 56.3c-22.7 25.2-34.9 35.7-49.3 31.7-24.8-6.7-74.5-65.2-74.5-65.2l21.3-25.4s50.9 44.3 56.5 46.6c3.6 1.4 25.6-28.3 47.5-58.7.1 0 34.1 11.6 36.8 14.7z" fill="#163f59"/><path d="m332.6 492.2c-1.1 3.9.1 7.6 2.7 8.4 2.6.8 5.7-1.7 6.8-5.6l1.4-4.9c1.1-3.9-.1-7.6-2.7-8.4-2.6-.8-5.7 1.7-6.8 5.6z" fill="#f7b68b"/><path d="m306.6 527.7c.3 7.1 3.8 13.3 7.8 13.8 3.8.2 7.5.3 11.3.5 4-.1 8-6.1 8.9-13.1 1.4-11.6 2.9-23.1 4.3-34.7.9-6.9-1.2-21-7-25.4-5.3-3.9-11.7-4.2-17.3-.8-6.2 3.9-9.5 17.7-9.2 24.7.3 11.7.7 23.4 1.2 35z" fill="#ec9568"/><path d="m301.5 509.6c1.5 6.6 4.2 8.3 8.9 9.3 4.5.7 5.6 1.2 10.2 1.8 4.8.4 10-5.7 11.4-11.5 2.2-9.6 7.8-17.3 10-26.8 1.4-5.7-.8-11-7.7-15.5-6.3-4-13.6-12-20.5-9.9-7.6 2.4-12.3 13.7-12.2 19.6 0 9.7-.2 23.1-.1 33z" fill="#f7b68b"/><path d="m345.8 474.9-3.8 7.4s-7.1-8.7-12-15.9c-1.6-2.2-18.6-3.2-22.8-2.6-3.1.4-3.6 4.3-4.4 6.6-2.9 8.1 1.7-13.7 1.7-13.7s6.2-10.1 17.1-10.5c6-.2 8.6 3.4 10.7 8 .5 1.1-6.5-2-5.3-2.1.3 0 7 6.4 7.2 6.9 1 2.4 2 4.8 3.4 6.9 5.4 8 8.2 9 8.2 9z" fill="#163f59"/><path d="m320.2 478.3-4.8.4 1.2 2.9-3.8 1.3-4.3 14.2 6.1.8 1.4-8.8 3.9-4.3 9.5-.5z" fill="#ec9568"/><path d="m238.3 1008.2v15.3l-1.7 12.8-4.8 3.8-3.7 1.5-.9 2.2-12.5 9.9c-3.4 1.9-8.4 3.1-14.6 2.2-2.1-.3.3-6.2.9-7.2 3.7-5.3 9.6-11.2 9.6-11.2l9.2-13.6 10.3-16.9z" fill="#161711"/><path d="m358.5 1024-2.8 6.4-1.2 7 1.2 10.9 5.9.4 4.4-1.3 3.1 1.8s16.9 1.9 23.2 1.6c10.4-.5 16-2.1 17.9-4.3 1-1.2-4-3-5.6-3.1-9.3-.6-19.5-5.7-19.5-5.7l-8.3-7.9-2-6z" fill="#161711"/><path d="m272.3 544.3 35.9-15.4 12.2 7.4 22-5.7s25.7 15.4 28.2 15.4c2.6 0-.9 143.7-.9 143.7l-65 20.5-24.7-16.2z" fill="#d1dbea"/><path d="m283.1 687.5-66.4 337.2 24-.8 36.8-108.7 8.3-32.5 38.8-128.7 9.8-69z" fill="#163f59"/><path d="m352.8 1026.2-5.1-136.4-11.4-61.7-14.6-84.7 5.9-58.2 52.1-3.3-2.1 97.8 5.3 87.5 1.1 33.1-2.8 130.8z" fill="#163f59"/><path d="m294.6 747.9 7.6-185.7 5.2-32.4-37.5 11.6-2.4 194.1z" fill="#194866"/><path d="m335.6 528.9 10 19.1 6.2 141.8-9.7 56.9 42.8-4.5-4-178.2-9.6-27.1z" fill="#194866"/><path d="m294.5 634.1-11.1-55.6 6.8-10.2-5.9-26.6 5.9-8.5 18-6-6 62.4-3.4 82.2z" fill="#163f59"/><path d="m335.7 528.4c-.9 2.6 9 20.7 9 20.7l5.4 102.9 12.9-76-3.4-13.7 3.4-8.6-10.7-21.6z" fill="#163f59"/><g fill="#b0bfde"><path d="m319.3 535.5-8.7 9.8-6.8-16.6 2.1-4.3z"/><path d="m335.5 524.1-12.9 11.4 8.5 10.2 7.2-16.5z"/></g></g><circle cx="862.3" cy="186.4" fill="none" r="134.7" stroke="#0561fc" stroke-width="2.5641"/><g clip-path="url(#d)"><path d="m831.7 259.6c.5 13.5 10.7 46.3 16.9 65.1h95.9l17.1-47.2s36.3-56.5-26.2-94c-9-5.4-55.6-1.4-55.6-1.4s-34.5 2.3-80.4 71c-1.4 2.2 31.6-12.9 32.3 6.5z" fill="#212957"/><path d="m889.1 150.5c.7 3.6 6.9 14.4-20.1 39.5-19.4 17.9 42.3 20.1 63.9-7.2 0 0-33-4.3-22.2-64.6 8-45.2-21.6 32.3-21.6 32.3z" fill="#f7b68b"/><path d="m875 211.5-12.9 5.3s-5 2.3-3.8 3c1.4.8 11.5-2.3 11.5-2.3s2.9 1.2 7.2 4.1 12 2.4 12 2.4 26.3 51.2 49.7 59.8 26.8 4.8 30.1-1.4 9.6-34-14.4-41.1c-23.9-7.2-60.3-20.1-60.3-20.1l-11.4-12.2-8.1-.4s-3.3 2.4-5.3 3.8" fill="#f7b68b"/><path d="m856.1 245.3c.6 1.6-.2 3.2-1.8 3.2h-76.1c-1.6 0-3.3-1.7-3.9-3.2l-19.3-53.2c-.6-1.6.2-3 1.8-3h76.1c1.6 0 3.3 1.4 3.9 3z" fill="#0561fc"/><path d="m883.8 253.3c0 1.6-1.3 2.9-2.9 2.9h-100.9c-1.6 0-2.9-1.3-2.9-2.9v-1.9c0-1.6 1.3-2.9 2.9-2.9h100.9c1.6 0 2.9 1.3 2.9 2.9z" fill="#0561fc"/><path d="m839.6 256.1h-54.5s-11.5 3.9-.7 17.5 21.9 9.8 28 7.3 26.5-21.3 26.5-21.3l8.6 1 10.8-5s-2.5-1.4-5.7 0-5 1.1-5 1.1l-3.2-1.8 2.2-2.5 1.1-2.5-5 2.9z" fill="#ec9568"/><path d="m909.4 152.6c-1.4-8.7-1.3-19.9 1.3-34.3 8.1-45.2-21.5 32.3-21.5 32.3.6 3.1 5.3 11.5-10.4 29.6 12.7-2.8 23.7-13.1 30.6-27.6z" fill="#ec9568"/><path d="m882.7 98.9s-7.2 44.5-4.3 54.5 11.4 12.4 21.5-1.4c19.4-26.5 18.7-47.4 12.9-50.9-5.7-3.7-21.5-17.3-30.1-2.2z" fill="#f7b68b"/><path d="m894.9 105.3c-7 1.1-17.9 5-25.1-12.9s8.6-21.5 16.5-12.2 7.2 13.6 2.2 9.3 2.9-17.2 10-8.6c7.2 8.6 10 21.5 6.5 20.8-3.6-.7 7.9-15.1 12.2-8.6s7.2 15.8 2.2 18.7-10.8-7.2-5.7-3.6c5 3.6 6.5 23 0 25.8-6.5 2.9-6.5-2.2-.7-7.9 5.7-5.7-2.2-17.6-5-6.1-.2 1-2.2 7.5-2.2 7.5l-4.3 3.6s0-12.9 2.9-17.6c6.3-10.4 6.1-10.7-9.5-8.2z" fill="#212957"/><path d="m843.7 256.9s-38.8 3.7-48.6 4.7c-6.5.7-12.4 3.4-14.1 6.8.7 1.6 1.8 3.3 3.3 5.3 10.8 13.6 21.9 9.8 28 7.3s26.5-21.3 26.5-21.3l8.6 1c.5-.7-3-3.7-3.7-3.8z" fill="#f7b68b"/><path d="m967.9 283.9c-2.5 1.8-3.4 3.1-7.5 2.6-6.3-.8-26.1-12.1-35.5-19.3-14.9-11.3-35.2-43.1-36-43.1 1.4 2.7 26.9 51.3 49.7 59.7 21.5 7.8 26.1 5.3 29.3.1z" fill="#ec9568"/></g><path d="m726 220.4c-16.3 0-29.5 13.2-29.5 29.5s29.5 61 29.5 61 29.5-44.7 29.5-61-13.2-29.5-29.5-29.5zm1.7 39.7c-6.1 1.1-11.4-4.1-10.2-10.2.6-3.4 3.4-6.2 6.8-6.9 6.2-1.2 11.5 4.1 10.3 10.3-.7 3.4-3.5 6.2-6.9 6.8z" fill="#ff5931"/><circle cx="1216.1" cy="293.3" fill="none" r="134.7" stroke="#0561fc" stroke-width="2.5641"/><g clip-path="url(#e)"><path d="m1242.9 349.3c-3.8.8-17.8 5.5-28.8-7.3-11-12.9 0-27-24.5-37.4s-31.9-25.7-13.5-49 3.1-23.9 4.3-43.5 40.4-47.8 71.7-23.9c19.3 14.8 27 19 14.1 61.9-13.1 43.6 17.8 30 24.5 49.6 6.8 19.6-23.9 44.7-47.8 49.6z" fill="#212a54"/><path d="m1265.1 661.3c-1.1-4.8-5-46-21.9-51.4-11.3-3.6-18.7 33.4 10.9 159.3 1.1 4.8 23.3 84.9 23.3 83-2.4-91.4 4.7-119.8-12.3-190.9z" fill="#ec9568"/><path d="m1243.4 466.1c-9-1.4-9 3.5-15.2 15.7-12.1 23.9-18.5 59.1-13.3 96.6 6.1 43.9 18.9 82.1 33.9 106 8.6-20.6 12.7-45.4 15.9-72.8 10.1-85.5 6.2-141.3-21.3-145.5z" fill="#ec9568"/><g fill="#f7b68b"><path d="m1153.7 335.2c-22.3 70.2-12.6 77.8-12.6 77.8s5.2 18.8 24.4-57.9c5.8-23.1-10.3-24.6-11.8-19.9z"/><path d="m1137.7 413.5c-14.7-17.7-22.1-90.7-22.1-90.7s4.8-27.9 31.9 65.8c8 28.1-6.2 29.2-9.8 24.9z"/><path d="m1121.8 259.8-6.1 6.7-3.3 6.7-.9 12.1s.6 12.9 2.6 17.6c2 4.8 1.5 23.9 2.2 26.2s12.7 5.2 12.7 5.2-5.3-19.8-6.7-27.8.5-20.1 0-23.3c-.8-5.4-2.8-9.6-2.8-9.6s-.3 8.5-.2 10.8c.2 2.3-2.4 1.3-2.4 1.3s-.8-11.8.3-14.9 2.2-4.3 3.2-5.6c1.5-2.3 1.4-5.4 1.4-5.4z"/><path d="m1170.8 469.6c6.8-2.4 28.9 3.5 34 16.1 10 24.7 15.8 61.3 12.5 100.4-3.9 45.8 10.8 137.4-28 120.3-11.8-18.1-45.2-227.4-18.5-236.8z"/><path d="m1193.4 649.3c4.6-2.4 13 3.5 18.8 15 11.4 22.6 14.9 53.6 17 92 2.1 40.5 2.2 70.8 1.7 95.8-.6 24.7 4 47.8-8.6 45.1 5.4-33.8-5.4-72.9-13.6-99.8-30.3-99.1-29.4-140.9-15.3-148.1z"/></g><path d="m1181.5 364.8 72-5.2 6-85.4-92 16.5z" fill="#9ac7f7"/><path d="m1285.4 607c-41.1-3.4-82.2-6.8-123.3-10.1-25.6-73.3-10.4-157.6 19.1-232.9l72.6-6c28.5 77.8 55.3 167.8 31.6 249z" fill="#3b47bc"/><path d="m1264.4 372.7-10-96c2.2-1.7 4.9-2.7 8-3l2.1-.2c8-.7 15.1 4.7 15.8 12l10.7 91z" fill="#9ac7f7"/><path d="m1158.3 382.3 22.4-85.9c-1.5-1.7-3.4-3-5.8-3.6l-1.6-.4c-6.1-1.6-12.4 2.1-14 8.2l-19.6 75z" fill="#9ac7f7"/><path d="m1231.1 901.2c-3.9 16-10.5 28.2-14.7 27.1-4.2-1-4.5-14.8-.6-30.9 3.9-16 10.5-28.2 14.7-27.1 4.3 1.1 4.5 14.9.6 30.9z" fill="#3c463b"/><path d="m1231.4 892.2c-1.1 12.1-7.1 22-11.3 21s-5-11-1.6-22.7c4.3-14.8 6.2-19.2 4.8-28.7-1.4-9.1 12.4-15.2 8.1 30.4z" fill="#f7b68b"/><path d="m1297.5 868.2c9.8 16.3 8.9 30 5.2 33.1-3.9 3.2-14.2-8.5-21.9-25.8-10.2-23.1-7.9-19.6-3.1-32.2.4-1.3 10.4 9.1 19.8 24.9z" fill="#3c463b"/><path d="m1269.5 767.1c-.2-2.1-1.3-20.2-1.6-29.3-.9-31.3-13.9-34.7-19-34.8-3-.1-4.6 6.5-4.9 18.1.7 4.1 1.5 8.3 2.3 12.5 8.4 44.7 18.2 84.8 26.9 112.7 2.1 6.6 3.1 14.3 5.5 19.1 6.7 13.2 12.6 20.6 15.9 20.6 3 .1 5.9-5.3 1-17.9-4.4-11.4-8.5-12.7-13.2-24.7-4.5-11.5-6.5-20.6-12.9-76.3z" fill="#ec9568"/><path d="m1235 282.8c-11.1.1-6.9-21-4.5-30.6 2.5-9.8-23.9 8-23.9 8s8 8 6.1 17.8c-1 5.4-7 9.1-13.8 13.9 4.2 3.8 9.2 5.9 14.5 5.9 8.7 0 16.5-5.8 21.6-15z" fill="#f7b68b"/><path d="m1211.6 280.9c5.9-3.2 11.3-7.1 16.1-11.7.3-6 1.7-12.6 2.8-17 2.5-9.8-23.9 8-23.9 8s8 8 6.1 17.8c-.2 1-.6 2-1.1 2.9z" fill="#ec9568"/><path d="m1208.4 201.8s-23.2 28.8-6.1 59.4c8.9 15.9 31.1-9 33.1-14.4s8.3 3.4 9.8-7.3c1.5-10.8-2-10.3-6.9-5.4s-6.9 2.4-7.3-5.4c-.5-7.8 10.3-13.4-4.4-13.4s-23.6-1.7-18.2-13.5z" fill="#f7b68b"/><path d="m1189.6 396.6h63.4l-19-93.2h-63.4z" fill="#212957"/><path d="m1290.4 374.7c-8.8-13.2-81.1-31.5-81.1-31.5-.5 5-7 7.8 11.6 13.6 10.8 3.4 28.3 12.4 52.3 24.6 16.4 8.3 19.4-3.5 17.2-6.7z" fill="#f7b68b"/><path d="m1210.8 353.2-15.5.2 2.9-14.8 6.9 2.2s-.5-3.6-2.3-5.3 3.2-.7 5.8 1.3 13.4 17.4 2.2 16.4z" fill="#f7b68b"/><path d="m1195.3 353.4-8.6-6.5s-4.6-8.9-4.8-10-.4-3.1 1.3-2.4-1.4-3.8-1.4-3.8 1.5-1.3 4.9.6c3.4 2 9.2 6.2 11.5 7.1 2.4 1.1-2.9 15-2.9 15z" fill="#ec9568"/></g><path d="m1291.3 524v-65.3h-56.6-56.5v65.3h56.5z" fill="#c5e1f9"/><path d="m1291.3 524v-65.3l-56.6 36.1-56.5-36.1v65.3h56.5z" fill="#9ac7f7"/><path d="m1291.3 468.9v-10.2l-56.6 36.1z" fill="#7eb3ff"/><path d="m489.2 186.1h30.7l18.2 61.4h80.7" fill="none" stroke="#0561fc" stroke-miterlimit="10" stroke-width="2.5641"/><path d="m609.7 244.1h-69.9l-15.4-47.8h100.7z" fill="#9ac7f7"/><circle cx="550" cy="264.5" fill="#9ac7f7" r="8.5"/><circle cx="594.4" cy="264.5" fill="#9ac7f7" r="8.5"/><path d="m810.4 151.9c0 2.9-2.2 5.2-4.8 5.2h-9.4v19.5l-23-19.5h-47.2c-2.7 0-4.8-2.3-4.8-5.2v-58.9c0-2.9 2.2-5.2 4.8-5.2h79.5c2.7 0 4.8 2.3 4.8 5.2v58.9z" fill="#ffab01"/><circle cx="788" cy="122.1" fill="#fff" r="5.1"/><circle cx="765.5" cy="122.1" fill="#fff" r="5.1"/><circle cx="743" cy="122.1" fill="#fff" r="5.1"/><path d="m62.3 400.8h211.6v116h-211.6z" fill="#eaf4fe"/><path d="m62.3 400.8h211.6v19.4h-211.6z" fill="#9ac7f7"/><path d="m68.6 410.3h5.7" fill="none" stroke="#eaf4fe" stroke-width="6.6383"/><path d="m79.6 410.3h5.6" fill="none" stroke="#eaf4fe" stroke-width="6.6383"/><path d="m90.6 410.3h5.6" fill="none" stroke="#eaf4fe" stroke-width="6.6383"/><path d="m78.1 457.2h161.7" fill="none" stroke="#b5d6f9" stroke-miterlimit="10" stroke-width="8.5183"/><path d="m78.1 472.6h104.4" fill="none" stroke="#b5d6f9" stroke-miterlimit="10" stroke-width="8.5183"/><path d="m78.1 494h9.3v8.5h-9.3z" fill="#fec12f"/><path d="m90.7 494h43.8v8.5h-43.8z" fill="#b5d6f9"/><path d="m147 494h9.3v8.5h-9.3z" fill="#7ac943"/><path d="m159.5 494h38.1v8.5h-38.1z" fill="#b5d6f9"/><path d="m211.6 494h9.3v8.5h-9.3z" fill="#0561fc"/><path d="m224.1 494h38.1v8.5h-38.1z" fill="#b5d6f9"/><path d="m78.1 439h67.1" fill="none" stroke="#0561fc" stroke-miterlimit="10" stroke-width="8.5183"/><path d="m840.2 516.5c0 4.1-3.3 7.4-7.4 7.4h-64.1c-4.1 0-7.4-3.3-7.4-7.4v-93.6c0-4.1 3.3-7.4 7.4-7.4h44.3l27.1 27.1v73.9z" fill="#fff"/><path d="m815.6 440.2 24.6 24.3v-21.9l-2.4-2.4z" fill="#c5e1f9"/><path d="m813.1 415.5v19.7c0 4.1 3.3 7.4 7.4 7.4h19.7z" fill="#0561fc"/><path d="m776.2 474.7h49.3v4.9h-49.3z" fill="#69aeeb"/><path d="m776.2 484.5h49.3v4.9h-49.3z" fill="#69aeeb"/><path d="m776.2 494.4h49.3v4.9h-49.3z" fill="#69aeeb"/><path d="m776.2 464.8h37v4.9h-37z" fill="#69aeeb"/></svg>