<?xml version="1.0" encoding="utf-8"?>
<!-- Generator: Adobe Illustrator 21.1.0, SVG Export Plug-In . SVG Version: 6.00 Build 0)  -->
<svg version="1.1" xmlns="http://www.w3.org/2000/svg" xmlns:xlink="http://www.w3.org/1999/xlink" x="0px" y="0px"
	 viewBox="0 0 3000 2000" style="enable-background:new 0 0 3000 2000;" xml:space="preserve">
<style type="text/css">
	.st0{fill:#F7F8FC;}
	.st1{fill:#EAF4FE;}
	.st2{fill:#C5E1F9;}
	.st3{fill:none;stroke:#FFFFFF;stroke-width:3.9276;stroke-miterlimit:10;}
	.st4{fill:none;stroke:#FFFFFF;stroke-width:4.3393;stroke-miterlimit:10;}
	.st5{fill:#9AC7F7;}
	.st6{fill:#FFFFFF;}
	.st7{fill:#E9F6FF;}
	.st8{fill:#CDD5D7;}
	.st9{fill:#0450CF;}
	.st10{fill:#69AEEB;}
	.st11{fill:#DD000B;}
	.st12{fill:#FD2227;}
	.st13{fill:#0561FC;}
	.st14{fill:#EC9568;}
	.st15{fill:#FFAB01;}
	.st16{fill:#F7B68B;}
	.st17{fill:#161711;}
	.st18{fill:#163F59;}
	.st19{fill:#194866;}
	.st20{fill:#282723;}
	.st21{fill:#FEC12F;}
	.st22{fill:#975140;}
</style>
<g id="Layer_2">
</g>
<g id="Layer_4">
	<g>
	</g>
	<path class="st0" d="M2069.7,1658.6c-186.4-1.7-765.1,3-1124.3,85.6c-666,153.2-1163.8-182.7-781.1-517.2
		c106.9-93.5-113.8-698.3,584.8-796.3c613.2-86,1201.2,196.2,1487.2,319c286,122.9,403.8,320.9,458.7,410.2
		C2743.3,1238.4,2721.3,1664.4,2069.7,1658.6z"/>
	<g>
		<g>
			<g>
				<path class="st1" d="M2562.6,719.6c0,0-11.6-35.5,1.6-68.1c4.8-11.8,23-28.2,35.3-23.3c12.3,4.9,16.1,24,9.2,41.2
					C2595.6,702.1,2562.6,719.6,2562.6,719.6z"/>
				<path class="st1" d="M2544.6,775.6c0,0,15.9-28.5,44.5-38.8c10.4-3.7,31.5-1.2,35.5,9.9c4,11.1-5.9,24.9-21,30.3
					C2575.1,787.3,2544.6,775.6,2544.6,775.6z"/>
				<path class="st1" d="M2511.4,835.7c0,0,26.1-19.5,56.4-17.3c11,0.8,29.2,11.8,28.4,23.5c-0.9,11.8-15.5,20.3-31.5,19.1
					C2534.4,858.8,2511.4,835.7,2511.4,835.7z"/>
				<path class="st1" d="M2543.2,776.8c0,0-27.9-11.5-44.1-37.3c-5.9-9.3-9.4-29.6-1.2-34.7c8.2-5.2,22.3,2.5,30.8,16.1
					C2544.8,746.6,2543.2,776.8,2543.2,776.8z"/>
				<path class="st1" d="M2515.2,837.7c0,0-28.8-11-44.9-36.7c-5.9-9.3-9-29.8-0.4-35.3c8.7-5.4,23.1,2,31.6,15.6
					C2517.7,807,2515.2,837.7,2515.2,837.7z"/>
				<path class="st1" d="M2462,913.2c0,0-25.7-6.1-38-25.7c-4.5-7.1-5.2-23.8,3.4-29.2c8.6-5.4,21.3-0.8,27.9,9.5
					C2467.7,887.5,2462,913.2,2462,913.2z"/>
				<path class="st1" d="M2465.3,915c0,0,18.8-16.8,43.4-18.6c8.9-0.7,24.8,5,25.4,13.4c0.6,8.4-10.2,16.1-23.1,17.1
					C2486.4,928.8,2465.3,915,2465.3,915z"/>
			</g>
			<g>
				<path class="st1" d="M2318.7,1257.5c5.6,5.4,10.6,7.1,11,7.2l1.9-5.9l-1,2.9l1-2.9c-0.6-0.2-13.7-4.9-19.8-24.9
					c-6.8-22.5-2.1-54.4,14-94.8c22.1-55.4,65.4-125.4,128.6-207.9c73.4-95.9,93.8-158.4,107.3-199.8c3.5-10.6,6.4-19.8,9.7-27.3
					l-5.7-2.4c-3.4,7.8-6.4,17-9.9,27.8c-13.3,41-33.5,102.9-106.3,198c-140.7,183.7-155.7,269.2-143.5,308.6
					C2309.2,1246.4,2314.2,1253.2,2318.7,1257.5z"/>
			</g>
		</g>
		<path class="st1" d="M1622.7,1253.2c-96.1-80.7-14.9-99.3,79.8-90.5c-42.2-56.1-10.3-103.5,106.7-149.5
			c52.5-20.7,113.4-1.1,171.7,36.7c54.1-98.1,122.3-162.5,192.6-118.2c58.1,36.6,100.2,78.4,125.2,121.3c19.3-6.8,40-13.1,62.1-18.6
			c48-12,81.9,3.4,104.8,34.9c96.3-53,191.9-80.8,243.7-33.9c90.1,81.5,98.3,144.8,31.8,200.9c94.4,11.8,163.1,52.5,33.7,125.2
			c113.3-4,192.6,16.1,139.3,88.3c-119,160.9-624.9,146.1-995.6,36.1c-236.4-34.7-430.6-101-462.6-190.6
			C1432.4,1229.3,1515.9,1228.7,1622.7,1253.2z"/>
		<g>
			<path class="st2" d="M2281.9,1160.4c-143.8,63.5-238.7,192.3-266.1,337c125.5,77.2,284.6,93.8,428.3,30.2
				c143.8-63.5,238.7-192.3,266.1-337.1C2584.8,1113.4,2425.7,1096.8,2281.9,1160.4z"/>
			<g>
				<line class="st3" x1="2654.6" y1="1212.6" x2="2041.2" y2="1483.6"/>
				<line class="st3" x1="2528.4" y1="1269.2" x2="2631.3" y2="1317.8"/>
				<line class="st3" x1="2423.8" y1="1315.4" x2="2550.6" y2="1375.3"/>
				<line class="st3" x1="2319.2" y1="1361.6" x2="2531.3" y2="1461.7"/>
				<line class="st3" x1="2214.6" y1="1407.8" x2="2420.9" y2="1505.2"/>
				<line class="st3" x1="2110" y1="1454" x2="2224.9" y2="1508.3"/>
				<line class="st3" x1="2540.2" y1="1261.8" x2="2573.5" y2="1153"/>
				<line class="st3" x1="2435.6" y1="1308" x2="2487.6" y2="1138.4"/>
				<line class="st3" x1="2331" y1="1354.2" x2="2396.1" y2="1141.9"/>
				<line class="st3" x1="2226.5" y1="1400.4" x2="2293.3" y2="1182.3"/>
				<line class="st3" x1="2121.9" y1="1446.6" x2="2179.3" y2="1259.3"/>
			</g>
		</g>
		<g>
			<path class="st2" d="M1980,1122.7c-98.4,143.1-113,319.2-54.9,471.2c162.8-0.1,322-76.8,420.4-219.9
				c98.4-143.1,113-319.2,54.9-471.2C2237.6,902.9,2078.3,979.6,1980,1122.7z"/>
			<g>
				<line class="st4" x1="2360.7" y1="955.8" x2="1941" y2="1566.2"/>
				<line class="st4" x1="2274.9" y1="1082.2" x2="2399.8" y2="1068.3"/>
				<line class="st4" x1="2203.3" y1="1186.3" x2="2357.3" y2="1169.1"/>
				<line class="st4" x1="2131.7" y1="1290.4" x2="2389.2" y2="1261.6"/>
				<line class="st4" x1="2060.1" y1="1394.5" x2="2310.6" y2="1366.5"/>
				<line class="st4" x1="1988.6" y1="1498.6" x2="2128" y2="1483"/>
				<line class="st4" x1="2281.7" y1="1068.4" x2="2250" y2="946.7"/>
				<line class="st4" x1="2210.1" y1="1172.5" x2="2160.7" y2="982.8"/>
				<line class="st4" x1="2138.5" y1="1276.6" x2="2076.7" y2="1039.1"/>
				<line class="st4" x1="2067" y1="1380.7" x2="2003.4" y2="1136.8"/>
				<line class="st4" x1="1995.4" y1="1484.7" x2="1940.8" y2="1275.2"/>
			</g>
		</g>
		<path class="st5" d="M2487.9,1603.1c18.7-28.8-4.5-53.2-93.4-66.2c-97-14.2-189.6-4.5-265.8,13c179.7-87.1,389.3-209.4,198-223.5
			c-59.7-4.4-151.4,24.5-253.5,69.6c113.8-92.6,176.5-168.8,107.5-182.9c-64-13.1-194.6,62.2-333.6,162.2
			c79.2-83.8,125-157,89.5-191.5c-29-28.2-90.9,4.2-162.2,64c3.2-52.7-19-84.5-69.4-78.1c-47.5,6-86,67-113.4,140.1
			c-45.6-113.4-165.9-182.8-287.3-148.3c-142.6,40.4-28.1,312.3,35.8,441.5H2487.9z"/>
		<path class="st6" d="M2226.5,1395.7c0.8-0.6,1.5-1.2,2.3-1.7c-0.4-0.1-0.8-0.3-1.2-0.4c-10.7-4.2-17.5-12.1-15.4-17.7
			c2.2-5.5,12.6-6.7,23.2-2.5c0.9,0.3,1.8,0.7,2.6,1.2c-0.1-0.4-0.2-0.9-0.2-1.3c-1.7-11.3,1.7-21.2,7.6-22.1
			c5.9-0.9,12.1,7.5,13.8,18.9c0.1,1,0.2,1.9,0.3,2.9c0.3-0.3,0.6-0.6,1-0.8c8.9-7.1,19.2-9.2,23-4.5c3.7,4.7-0.5,14.3-9.4,21.4
			c-0.8,0.6-1.5,1.2-2.3,1.7c0.4,0.1,0.8,0.3,1.2,0.4c10.7,4.2,17.5,12.1,15.4,17.6c-2.2,5.6-12.6,6.7-23.2,2.5
			c-0.9-0.4-1.8-0.7-2.6-1.2c0.1,0.4,0.1,0.9,0.2,1.3c1.7,11.3-1.7,21.2-7.6,22.1c-5.9,0.9-12.1-7.6-13.8-18.9
			c-0.2-1-0.2-1.9-0.3-2.9c-0.3,0.3-0.7,0.6-1,0.8c-8.9,7.1-19.2,9.2-23,4.5C2213.3,1412.4,2217.5,1402.8,2226.5,1395.7z
			 M2252,1403.4c6.1-0.9,10.3-6.6,9.4-12.8c-0.9-6.1-6.7-10.3-12.8-9.4c-6.1,0.9-10.3,6.7-9.4,12.8
			C2240.1,1400.1,2245.9,1404.3,2252,1403.4z"/>
	</g>
	<path class="st7" d="M1939.5,1579.1c-167.7-2-687.2-10.6-1002.5-34.7c-584.7-44.8-1062.1,28.3-748.4,112.3
		c87.7,23.5-165,163.8,453.9,196c543.3,28.3,1097-30.9,1365-56.3c268-25.4,391.7-70.7,449.1-91.2
		C2507,1687.2,2525.6,1586.1,1939.5,1579.1z"/>
	<g>
		<g>
			<path class="st8" d="M736.6,1564.1c-25.8,0-46.8-21-46.8-46.8V648.2c0-25.8,21-46.8,46.8-46.8h1269.9c25.9,0,46.9,21,46.9,46.8
				v869.1c0,25.8-21,46.8-46.9,46.8H736.6z"/>
			<path class="st9" d="M2048.9,1517.3c0,23.4-19,42.4-42.5,42.4H736.6c-23.4,0-42.4-19-42.4-42.4V648.2c0-23.4,19-42.5,42.4-42.5
				h1269.9c23.5,0,42.5,19,42.5,42.5V1517.3z"/>
			<rect x="760.5" y="666.7" class="st6" width="1221.9" height="780"/>
			<rect x="461.3" y="1511.7" class="st5" width="1820.3" height="53.3"/>
			<g>
				<path class="st10" d="M464,1564.9c21.5,22.8,61.1,31.7,88.4,31.7h1638.1c27.3,0,66.9-8.9,88.4-31.7H464z"/>
			</g>
			<g>
				<path class="st10" d="M1247.9,1511.7v5.7c0,10.5,8.5,19,19,19h209.3c10.5,0,19-8.5,19-19v-5.7H1247.9z"/>
			</g>
		</g>
	</g>
	<g>
		<g>
			<path class="st2" d="M1207.3,1318.9c0,68.5-55.5,124.1-124,124.1c-68.6,0-124.1-55.6-124.1-124.1c0-68.5,55.6-124,124.1-124
				C1151.7,1194.8,1207.3,1250.4,1207.3,1318.9z"/>
			<path class="st2" d="M1713.8,1454.2c9.1-18.8,14.4-39.9,14.4-62.2c0-79.1-64.2-143.3-143.3-143.3c-79.2,0-143.4,64.2-143.4,143.3
				c0,22.3,5.2,43.4,14.4,62.2H1713.8z"/>
			<polygon class="st1" points="1361.8,392.1 1425,684.5 1488.1,1344 1361.8,1344 1235.6,1344 1298.7,802.6 			"/>
			<polygon class="st2" points="1361.8,392.1 1405.8,684.5 1449.8,1344 1361.8,1344 1273.8,1344 1317.8,802.6 			"/>
			<polygon class="st1" points="1361.8,392.1 1374.9,684.5 1387.9,1344 1361.8,1344 1335.8,1344 1348.8,684.5 			"/>
			<path class="st1" d="M1603.9,1340.7c0.6-4.8,0.9-9.7,0.9-14.7c0-68.5-55.5-124-124-124c-19.4,0-37.7,4.6-54,12.5
				c-18.9-64.6-78.5-111.9-149.2-111.9c-77.3,0-141.3,56.4-153.3,130.3c-39.7,7-74.7,27.9-99.4,57.8c-8.1-2.7-16.8-4.1-25.9-4.1
				c-46.3,0-83.9,37.5-83.8,83.8c0,45.7,36.7,82.8,82.2,83.8c0,0,0,0,0,0.1h241.9h69.8h30.3h157.9h100.1c0-0.1,0.1-0.3,0.1-0.4
				c1.6,0.1,3.1,0.4,4.7,0.4c31.4,0,56.8-25.4,56.8-56.8C1659,1366.6,1634.5,1341.7,1603.9,1340.7z"/>
			<path class="st2" d="M1501.3,1383c-19.9,0-38.4,5.7-54,15.6c-0.8-85.2-70.1-154-155.4-154c-67,0-123.9,42.4-145.8,101.8
				c-16.6-6-34.4-9.5-53-9.5c-66.2,0-122.6,41.4-145.1,99.8c13.7,10.6,30.8,17.1,49.4,17.5c0,0,0,0,0,0.1h241.9h69.8h30.3h157.9
				h100.1c0-0.1,0.1-0.3,0.1-0.4c0.4,0,0.8,0.1,1,0.1C1585.3,1412.8,1546.8,1383,1501.3,1383z"/>
			<g>
				<path class="st1" d="M1232.8,1407.1c0,26.8-21.7,48.5-48.5,48.5c-26.7,0-48.5-21.7-48.5-48.5c0-26.8,21.7-48.5,48.5-48.5
					C1211.1,1358.6,1232.8,1380.3,1232.8,1407.1z"/>
				<path class="st1" d="M1363.7,1455.6c3.8-10.4,6.1-21.6,6.1-33.4c0-53.1-43.1-96.2-96.2-96.2c-53.1,0-96.2,43.1-96.2,96.2
					c0,11.8,2.2,23,6.1,33.4H1363.7z"/>
			</g>
			<path class="st1" d="M1421.6,1398.8c0,31.4-25.4,56.8-56.8,56.8c-31.4,0-56.8-25.4-56.8-56.8c0-31.4,25.4-56.8,56.8-56.8
				C1396.2,1342.1,1421.6,1367.5,1421.6,1398.8z"/>
		</g>
		<g>
			<g>
				<path class="st11" d="M1359,633.8c-33.4,0-60.5,44.9-60.5,100.4c0,7,0.5,13.9,1.3,20.5l118.4,0c0.8-6.6,1.3-13.5,1.3-20.5
					C1419.4,678.8,1392.4,633.8,1359,633.8z"/>
				<path class="st12" d="M1343.2,633.8c-24.7,0-44.7,44.9-44.7,100.4c0,7,0.3,13.9,1,20.5l87.5,0c0.6-6.6,0.9-13.5,0.9-20.5
					C1387.9,678.8,1367.9,633.8,1343.2,633.8z"/>
			</g>
			<g>
				<g>
					<path class="st12" d="M1301.9,393.3c0,107-54.8,200-135.7,248.3c-2.4,2.2-4.8,4.4-7.1,6.6c-15,13.6-10.1,78.1-10.1,78.1
						l153.6,0c0,0,0-335.4,0-372.8c0,5.8-0.5,13-1.4,21.4C1301.6,381,1301.9,387.1,1301.9,393.3z"/>
					<path class="st1" d="M1302.7,518.1c-24.5,62.4-70.8,114.1-129.6,146.1c-2.7,2.3-5.3,4.5-7.8,6.6c-10,8.3-11.9,35.5-11.9,55.4
						l149.4,0C1302.7,726.2,1302.7,618.3,1302.7,518.1z"/>
					<path class="st2" d="M1166.8,718.7c-2.4,1.7-4.4,4.4-6,7.5l141.9,0c0,0,0-55.2,0-123.4c-29.8,45.9-73.8,83.8-127,109.2
						C1172.7,714.3,1169.7,716.6,1166.8,718.7z"/>
				</g>
				<g>
					<path class="st11" d="M1416,393.3c0,107,54.8,200,135.7,248.3c2.4,2.2,4.8,4.5,7.1,6.6c14.9,13.6,10.1,78.1,10.1,78.1h-153.7
						c0,0,0-335.4,0-372.8c0,5.8,0.5,13,1.4,21.4C1416.3,381,1416,387.1,1416,393.3z"/>
					<path class="st1" d="M1415.2,518.1c24.5,62.4,70.8,114.1,129.6,146.1c2.7,2.2,5.3,4.4,7.8,6.6c10,8.3,11.9,35.4,11.9,55.4
						l-149.4,0C1415.2,726.2,1415.2,618.3,1415.2,518.1z"/>
					<path class="st2" d="M1551.1,718.7c2.4,1.8,4.3,4.4,6,7.6h-141.9c0,0,0-55.2,0-123.4c29.8,45.8,73.9,83.8,127,109.2
						C1545.3,714.3,1548.2,716.5,1551.1,718.7z"/>
				</g>
			</g>
			<g>
				<path class="st2" d="M1419.2,726.2l0-385.4c0-35.3-26.2-149.7-60.2-168.6c-34,18.9-60.2,133.3-60.2,168.6v385.4L1419.2,726.2z"
					/>
				<path class="st1" d="M1359,172.3c-0.3,0.2-0.7,0.5-1,0.7l0,553.3h61.2l0-385.4C1419.2,305.6,1392.9,191.1,1359,172.3z"/>
				<path class="st12" d="M1315.9,251h86c-10.8-35.6-25.9-69.2-43-78.7C1341.9,181.8,1326.7,215.4,1315.9,251z"/>
				<path class="st11" d="M1357.9,251l44,0c-10.8-35.6-25.9-69.2-43-78.7c-0.3,0.2-0.7,0.5-1,0.7V251z"/>
			</g>
			<path class="st12" d="M1396,314.8c-2.5,5.6-10.7,3.5-20.3-0.1c-11-4.3-23.3-4.3-34.2,0c-9.6,3.6-17.8,5.7-20.3,0.1l0,0
				c-2.5-5.5,3.5-18.8,15.9-23.6c13.8-5.4,29.2-5.4,42.9,0C1392.6,296,1398.5,309.3,1396,314.8L1396,314.8z"/>
			<g>
				<g>
					<path class="st12" d="M1236.1,633.8c-14.6,0-26.4,45-26.4,100.4c0,7,0.2,13.9,0.5,20.5l51.8,0c0.4-6.6,0.6-13.5,0.6-20.5
						C1262.6,678.8,1250.8,633.8,1236.1,633.8z"/>
					<path class="st11" d="M1236.1,633.8c-3.8,0-7.4,3.1-10.7,8.6c12,6.5,21.2,45.7,21.3,93c0,6.6-0.2,13-0.5,19.2l15.9,0
						c0.4-6.6,0.6-13.5,0.6-20.5C1262.6,678.8,1250.8,633.8,1236.1,633.8z"/>
				</g>
				<g>
					<path class="st12" d="M1481.8,633.8c-14.6,0-26.5,45-26.4,100.4c0,7,0.2,13.9,0.5,20.5h51.8c0.4-6.6,0.6-13.5,0.6-20.5
						C1508.2,678.8,1496.4,633.8,1481.8,633.8z"/>
					<path class="st11" d="M1481.8,633.8c-3.8,0-7.4,3.1-10.7,8.6c12,6.5,21.2,45.6,21.2,93c0,6.6-0.2,13-0.5,19.2l15.9,0
						c0.4-6.6,0.6-13.5,0.6-20.5C1508.2,678.8,1496.4,633.8,1481.8,633.8z"/>
				</g>
			</g>
		</g>
	</g>
	<g>
		<path class="st13" d="M1620.8,1212.7h-484.5c-64.6,0-117.5-52.9-117.5-117.5l0,0c0-64.6,52.9-117.5,117.5-117.5h484.5
			c64.6,0,117.5,52.9,117.5,117.5l0,0C1738.3,1159.8,1685.4,1212.7,1620.8,1212.7z"/>
		<g>
			<path class="st6" d="M1244.9,1107.4c0-2.9-1-5.2-3.1-6.9c-2.1-1.6-5.7-3.3-11-5.1c-5.2-1.8-9.5-3.5-12.8-5.1
				c-10.8-5.3-16.2-12.6-16.2-21.9c0-4.6,1.3-8.7,4-12.2c2.7-3.5,6.5-6.3,11.4-8.3c4.9-2,10.5-3,16.6-3c6,0,11.4,1.1,16.1,3.2
				c4.8,2.1,8.5,5.2,11.1,9.1c2.6,4,4,8.5,4,13.5H1245c0-3.4-1-6-3.1-7.9c-2.1-1.9-4.9-2.8-8.5-2.8c-3.6,0-6.4,0.8-8.5,2.4
				c-2.1,1.6-3.1,3.6-3.1,6c0,2.1,1.1,4.1,3.4,5.8c2.3,1.7,6.3,3.5,12.1,5.4c5.8,1.9,10.5,3.8,14.2,6c9,5.2,13.5,12.4,13.5,21.5
				c0,7.3-2.8,13-8.3,17.2c-5.5,4.2-13,6.2-22.6,6.2c-6.8,0-12.9-1.2-18.4-3.6c-5.5-2.4-9.6-5.7-12.4-10c-2.8-4.2-4.1-9.1-4.1-14.6
				h20.2c0,4.5,1.2,7.8,3.5,9.9c2.3,2.1,6.1,3.2,11.3,3.2c3.3,0,5.9-0.7,7.9-2.1C1244,1112,1244.9,1110,1244.9,1107.4z"/>
			<path class="st6" d="M1340.8,1061.6h-25v67.9h-20.1v-67.9h-24.6v-15.5h69.7V1061.6z"/>
			<path class="st6" d="M1389.8,1113.9h-27.6l-4.8,15.6H1336l30.6-83.4h18.9l30.8,83.4h-21.6L1389.8,1113.9z M1367.1,1098.4h17.9
				l-9-28.9L1367.1,1098.4z"/>
			<path class="st6" d="M1453.4,1100h-10.9v29.5h-20.1v-83.4h32.8c9.9,0,17.6,2.2,23.2,6.6c5.6,4.4,8.4,10.6,8.4,18.6
				c0,5.8-1.2,10.6-3.5,14.4c-2.3,3.8-6,6.9-11,9.3l17.4,33.7v0.9h-21.5L1453.4,1100z M1442.5,1084.6h12.7c3.8,0,6.7-1,8.6-3
				c1.9-2,2.9-4.8,2.9-8.4c0-3.6-1-6.4-2.9-8.5c-2-2.1-4.8-3.1-8.6-3.1h-12.7V1084.6z"/>
			<path class="st6" d="M1561.5,1061.6h-25v67.9h-20.1v-67.9h-24.6v-15.5h69.7V1061.6z"/>
		</g>
	</g>
	<g>
		<g>
			<g>
				<path class="st14" d="M988.1,1001.5c0,0,2.7,17.1,88.8,3.5c86.1-13.6,209.8-54.3,209.8-54.3l-201,13.3
					C1085.8,964.1,1009.1,972.7,988.1,1001.5z"/>
				<path class="st14" d="M1219.8,967.6c41.1-5.2,60.7,12.5,77.5,16.7c16.9,4.1,34.2,11.6,34,11.4c-10.8-15.9-24.1-14.7-31.3-19.4
					c-7.2-4.7-5.2-2.1,9.3-5.1c8.3-1.7,24.3,10.7,35.6,17.3c9.8,5.7,15.6,5.5,15.6,5.5s-12-13.1-26.7-23
					c-17.8-11.9-39.1-21.1-44.1-22.3c-9.1-2.2-36.7,0.4-56,5.4C1212,959.8,1190.2,971.4,1219.8,967.6z"/>
				<path class="st14" d="M1287.7,949.8c0,0,32.2,3.8,38.1,7.1c4.1,2.3,21.8,16.7,21.8,16.7s-11.9-0.4-19.3-5.7
					C1320.8,962.6,1287.7,949.8,1287.7,949.8z"/>
			</g>
			<path class="st15" d="M1002.1,973.3c-21.2,2.9-58.6,1.7-48.9,47c5.5,25.7,24.6,32.5,48.4,27.6c44.3-9.1,94.4-21.7,94.4-21.7
				l15.9-74.2C1111.9,951.9,1024.6,970.2,1002.1,973.3z"/>
		</g>
		<path class="st15" d="M986.7,975l-184.6-52.6c0,0-51.4-0.8-57.6,16c-9.1,24.3,22.2,40.9,34.7,49.6c24.8,17.2,9.3,16.8,113.3,41.7
			c78.7,18.9,111.5,31.4,119.4-14.1C1015.8,993.4,986.7,975,986.7,975z"/>
		<polygon class="st16" points="854.8,1374.8 836.9,1534.1 918.8,1556.3 962.6,1558.1 878.2,1514.7 905.3,1367.4 		"/>
		<path class="st17" d="M835.3,1555.3l17.2,1.5l9.4-11.8l65.7,19.4l56,3.3c0,0,0-4.3-2.2-6.3c-8.2-7.4-49.2-20.1-49.2-20.1
			s1.5,12.6-3.8,13.9c-5.3,1.3-55.9-14.6-67.7-19.4c-20.4-8.2-25.1-14.7-26.4-13.6C831,1525,835.3,1555.3,835.3,1555.3z"/>
		<path class="st18" d="M854.1,1242l-15.4,143.1l79.5-5.8l20.2-213.9c0,0-13.4-52.6-49.2-38C866,1136.6,854.1,1242,854.1,1242z"/>
		<path class="st18" d="M820.1,1181.7l-117.5,212.2c0,0-54.6,57.5-36,70.5c26.9,18.8,106.5-6.2,121.4-19.4
			c29.5-26.1,7.2-11.5,77.3-132.5c64.1-110.6,91.8-155.5,42.7-187.1C862.2,1095.9,820.1,1181.7,820.1,1181.7z"/>
		<path class="st16" d="M382.2,1514c0,0,194.7,1.6,190.1,2c-4.6,0.5-32.3-48.9-32.3-48.9L408.4,1490L382.2,1514z"/>
		<polygon class="st16" points="435.1,1509.3 419.3,1476.9 336.6,1496.3 297.2,1515.6 392.1,1513.6 		"/>
		<path class="st17" d="M410.5,1457.5l-15.9,6.9l-2.7,14.9l-67,14.3l-50.8,23.8c0,0,2.1,3.8,5,4.5c10.7,2.6,52.8-5.7,52.8-5.7
			s-7.3-10.4-3.3-14c4.1-3.6,56.1-13.8,68.8-15.2c21.9-2.5,29.1,1,29.7-0.6C428.7,1482,410.5,1457.5,410.5,1457.5z"/>
		<path class="st19" d="M814,1430.4L512.3,1453l26.5,73.4l380.8-15.4c0,0,51.5-34.4,27.4-71.1C932.9,1418.5,814,1430.4,814,1430.4z"
			/>
		<path class="st20" d="M833.3,1062.8c-14.6,49.6-67.4,77.6-118,62.8c-50.6-14.9-79.8-67.1-65.2-116.7c14.6-49.5,67.4-77.6,118-62.7
			C818.6,961,847.8,1013.2,833.3,1062.8z"/>
		<path class="st20" d="M867.2,943.2c-14,47.4-64.5,74.3-113,60.1c-48.4-14.2-76.4-64.3-62.4-111.7c14-47.4,64.5-74.3,113-60.1
			C853.2,845.7,881.2,895.7,867.2,943.2z"/>
		<path class="st20" d="M954.5,899.2c-10.7,36.4-48.9,57.3-85.4,46.5l-7.3-36.2c-36.4-10.7-57.3-48.9-46.6-85.4l7.3-24.7
			c10.7-36.4,48.9-57.3,85.4-46.6l16.5,4.9c36.4,10.7,57.3,48.9,46.6,85.4L954.5,899.2z"/>
		<path class="st16" d="M956.7,794.5c-1.9,6-4.2,12.1-7,18.1c-19.1,40.4-54.3,65-83.6,60.7c-6.5,18.9-15.5,35-24.4,48.3
			c-10.2,15.2-34.9,27.1-34.9,27.1c-13.5,28.2,62.5,97.9,67.6,95.7c10.9-4.7,29.9-59.5,12.3-82.3c-8.2-10.7-16.9-20.8-13.8-26.9
			c6.5-13.1,6.6-12.9,18.8-23.1c21.2-13.9,43.9-6.9,43.9-6.9c2.2,0.6,4.4,0.3,6.3-0.8c2.6-4,4.7-8.4,6.1-13.2l16-54.4
			C968.5,821.8,965.2,806.3,956.7,794.5z"/>
		<path class="st13" d="M654.7,1353.6c0,0,16.9,36.4,23.7,41.8c9.1,7.3,43.2,7,43.2,7s46.3-132,70.8-181.8
			c24.5-49.7,42.7-59.4,47.9-75.8c8.4-26.1,8.3-32.9,10.4-54.6c2.1-21.7,6.4-57.1,2.3-63.1c-6.6-9.6-13.4-20.6-15.5-33.1
			C836.4,987.3,654.7,1353.6,654.7,1353.6z"/>
		<path class="st21" d="M885.2,942.5c0,0,18.5,48.7,13.1,76.3c-4,20.5-7.9,68.5-33.5,122.5c-25.6,54.1-36.8,66-50.5,107
			c-13.7,40.9-6.9,53-25.4,102.8c-14.5,39-31.1,72.2-31.1,72.2s-19.6-0.3-28.8-19.1c-9.3-18.8,36.7-155.7,51.8-188.3
			c15.1-32.6,61.6-116,67.4-140.1c5.8-24.1,19.9-99.7,17.9-108.4C861.1,945.7,881.6,943.5,885.2,942.5z"/>
		<path class="st22" d="M880.1,934.5c0,0,2.2,4,0,6.5c-4.4,5.1-8.5,7.9-8.5,7.9s8.7-1.4,9.7,6.1c1.2,9.2-2,28.2-2,28.2
			s13.6-25,12.4-33.4C889.7,934.5,880.1,934.5,880.1,934.5z"/>
		<path class="st19" d="M881,1399.5l-282.6-63.8c0,0-82-40.4-93.1-18.1c-16,32.1,33.1,106.1,52.5,117.8
			c38.4,23.1,15.5,4.3,177.4,43.8c148,36.1,208.4,52.4,234.5-5.4C994,1419.8,881,1399.5,881,1399.5z"/>
		<path class="st21" d="M660.8,1385c0,0,59.9-128.1,89.8-188.2c29.9-60.1,79.3-179.6,86.4-194.1c7.1-14.5,11.9-37.2,11.9-37.2
			s-5.2-39.9-27.3-46c-19.4-5.3-41-4.3-73.2,2.2c-38.8,7.8-115.6,227.4-121.1,238c-19.8,38.2-74,76.3-98.4,103.7
			c-19.4,21.8-40.5,56.9-40.5,56.9S602.4,1344.5,660.8,1385z"/>
		<polygon class="st15" points="832.4,912.1 841.1,933.1 852.5,964.4 831.3,985.1 816.2,917.7 		"/>
		<path class="st15" d="M929.5,1122.9l-140.8-172c0,0-24.4-22.8-35.1-18.7c-25.7,9.7-39.7,47.4-33.5,62.4
			c12.4,29.7,14.3,26.2,89,108c68.3,74.7,95.5,106.5,132.4,71.5C975.9,1141.3,929.5,1122.9,929.5,1122.9z"/>
		<g>
			<path class="st16" d="M1034.2,1148.1c0,0,64.1,18.5,70.6,18.4c6.5-0.1,9.5-4.2,22.6-10.4c13.2-6.2,15.9-6.6,26.5-10.9
				c10.7-4.3,12-4.4,12-4.4s1.3,6.6-2.5,9.3c-3.4,2.4-12.4,6-15.3,8.1c-2.8,2.2,7.6-2.8,24.3-5.4c16.6-2.6,33.2-2.9,40.4-2.5
				c4.5,0.2,5.2,0.4,5.2,0.6c0.4,2.1,0.6,4.1-1.3,5c-1.7,0.8-8,1.8-7.6,2c1.6,0.8,12,1.9,13.8,1.9c1.9,0,4.4,0,6,0.2
				c3.2,0.4,2.6,4.6-2.4,7.4c-0.1,0.1-0.7,3-2.2,4c-0.8,0.5-1.3,0.9-2.1,1.3c-0.9,0.5-2,0.8-2.9,1.2c-3.4,1.7-6.8,3.1-10.1,4.2
				c-1.4,0.4-13.8,2.4-13.7,3.2c0,0.1,10.1,0,10,0.8c-0.1,1.8-1.5,4.4-3.2,4.7c-3.2,0.5-7.9,1.3-21.1,2.7
				c-14.5,1.6-17.8,0.7-35.4,7.5c-15.4,5.9-21.1,4.4-32.4-0.4c-39.1-16.3-73.3-7.9-84.8-12.5
				C1017.2,1179.7,1034.2,1148.1,1034.2,1148.1z"/>
		</g>
		<g>
			<path class="st15" d="M917.3,1116.7c0,0-27.5-25.8-31.6,20.5c-2.4,26.3-10.5,44.9,19.9,50.3c53.5,9.4,126.1,16.5,126.1,16.5
				l21.7-56L917.3,1116.7z"/>
		</g>
	</g>
</g>
</svg>
